# MagicaVoxel @ Ephtracy

# group
o 

# material
mtllib bedroom_lvl2.mtl
usemtl palette

# normals
vn -1 0 0
vn 1 0 0
vn 0 0 1
vn 0 0 -1
vn 0 -1 0
vn 0 1 0

# texcoords
vt 0.208984 0.5
vt 0.939453 0.5
vt 0.958984 0.5
vt 0.970703 0.5
vt 0.978516 0.5
vt 0.982422 0.5
vt 0.986328 0.5

# verts
v -0.8 0 0.8
v -0.8 0 0.2
v -0.8 0 0.1
v -0.8 0 -0.1
v -0.8 0 -0.2
v -0.8 0 -0.8
v -0.8 0.1 0.8
v -0.8 0.1 0.2
v -0.8 0.1 0.1
v -0.8 0.1 -0.1
v -0.8 0.1 -0.2
v -0.8 0.1 -0.8
v -0.8 0.5 0.2
v -0.8 0.5 0.1
v -0.8 0.5 -0.1
v -0.8 0.5 -0.2
v -0.8 0.6 0.1
v -0.8 0.6 -0.1
v -0.7 0.1 0.8
v -0.7 0.1 0.6
v -0.7 0.1 0.2
v -0.7 0.1 -0.2
v -0.7 0.1 -0.6
v -0.7 0.1 -0.8
v -0.7 0.2 0.8
v -0.7 0.2 0.6
v -0.7 0.2 0.2
v -0.7 0.2 -0.2
v -0.7 0.2 -0.6
v -0.7 0.2 -0.8
v -0.2 0.1 0.8
v -0.2 0.1 0.6
v -0.2 0.1 0.2
v -0.2 0.1 -0.2
v -0.2 0.1 -0.6
v -0.2 0.1 -0.8
v -0.2 0.2 0.8
v -0.2 0.2 0.6
v -0.2 0.2 0.2
v -0.2 0.2 -0.2
v -0.2 0.2 -0.6
v -0.2 0.2 -0.8
v 0.3 0.1 0.8
v 0.3 0.1 0.6
v 0.3 0.1 0.2
v 0.3 0.1 -0.2
v 0.3 0.1 -0.6
v 0.3 0.1 -0.8
v 0.3 0.2 0.8
v 0.3 0.2 0.6
v 0.3 0.2 0.2
v 0.3 0.2 -0.2
v 0.3 0.2 -0.6
v 0.3 0.2 -0.8
v 0.7 0.1 0.2
v 0.7 0.1 0.1
v 0.7 0.1 -0.1
v 0.7 0.1 -0.2
v 0.7 0.5 0.2
v 0.7 0.5 0.1
v 0.7 0.5 -0.1
v 0.7 0.5 -0.2
v 0.7 0.6 0.1
v 0.7 0.6 -0.1
v -0.7 0.1 0.2
v -0.7 0.1 0.1
v -0.7 0.1 -0.1
v -0.7 0.1 -0.2
v -0.7 0.2 0.2
v -0.7 0.2 -0.2
v -0.7 0.5 0.2
v -0.7 0.5 0.1
v -0.7 0.5 -0.1
v -0.7 0.5 -0.2
v -0.7 0.6 0.1
v -0.7 0.6 -0.1
v -0.4 0.1 0.8
v -0.4 0.1 0.6
v -0.4 0.1 0.2
v -0.4 0.1 -0.2
v -0.4 0.1 -0.6
v -0.4 0.1 -0.8
v -0.4 0.2 0.8
v -0.4 0.2 0.6
v -0.4 0.2 0.2
v -0.4 0.2 -0.2
v -0.4 0.2 -0.6
v -0.4 0.2 -0.8
v 0.1 0.1 0.8
v 0.1 0.1 0.6
v 0.1 0.1 0.2
v 0.1 0.1 -0.2
v 0.1 0.1 -0.6
v 0.1 0.1 -0.8
v 0.1 0.2 0.8
v 0.1 0.2 0.6
v 0.1 0.2 0.2
v 0.1 0.2 -0.2
v 0.1 0.2 -0.6
v 0.1 0.2 -0.8
v 0.6 0.1 0.8
v 0.6 0.1 0.6
v 0.6 0.1 0.2
v 0.6 0.1 -0.2
v 0.6 0.1 -0.6
v 0.6 0.1 -0.8
v 0.6 0.2 0.8
v 0.6 0.2 0.6
v 0.6 0.2 0.2
v 0.6 0.2 -0.2
v 0.6 0.2 -0.6
v 0.6 0.2 -0.8
v 0.8 0 0.8
v 0.8 0 0.2
v 0.8 0 -0.2
v 0.8 0 -0.8
v 0.8 0.1 0.8
v 0.8 0.1 0.2
v 0.8 0.1 0.1
v 0.8 0.1 -0.1
v 0.8 0.1 -0.2
v 0.8 0.1 -0.8
v 0.8 0.5 0.2
v 0.8 0.5 0.1
v 0.8 0.5 -0.1
v 0.8 0.5 -0.2
v 0.8 0.6 0.1
v 0.8 0.6 -0.1
v -0.8 0 0.8
v -0.8 0.1 0.8
v -0.7 0.1 0.8
v -0.7 0.2 0.8
v -0.4 0.1 0.8
v -0.4 0.2 0.8
v -0.2 0.1 0.8
v -0.2 0.2 0.8
v 0.1 0.1 0.8
v 0.1 0.2 0.8
v 0.3 0.1 0.8
v 0.3 0.2 0.8
v 0.6 0.1 0.8
v 0.6 0.2 0.8
v 0.8 0 0.8
v 0.8 0.1 0.8
v -0.8 0.1 0.2
v -0.8 0.5 0.2
v -0.7 0.1 0.2
v -0.7 0.2 0.2
v -0.7 0.5 0.2
v 0.7 0.1 0.2
v 0.7 0.5 0.2
v 0.8 0.1 0.2
v 0.8 0.5 0.2
v -0.8 0.5 0.1
v -0.8 0.6 0.1
v -0.7 0.5 0.1
v -0.7 0.6 0.1
v 0.7 0.5 0.1
v 0.7 0.6 0.1
v 0.8 0.5 0.1
v 0.8 0.6 0.1
v -0.8 0.1 -0.1
v -0.8 0.5 -0.1
v -0.7 0.1 -0.1
v -0.7 0.5 -0.1
v 0.7 0.1 -0.1
v 0.7 0.5 -0.1
v 0.8 0.1 -0.1
v 0.8 0.5 -0.1
v -0.7 0.1 -0.2
v -0.7 0.2 -0.2
v -0.6 0.1 -0.2
v -0.5 0.1 -0.2
v -0.4 0.1 -0.2
v -0.4 0.2 -0.2
v -0.2 0.1 -0.2
v -0.2 0.2 -0.2
v -0.1 0.1 -0.2
v 0 0.1 -0.2
v 0.1 0.1 -0.2
v 0.1 0.2 -0.2
v 0.3 0.1 -0.2
v 0.3 0.2 -0.2
v 0.4 0.1 -0.2
v 0.5 0.1 -0.2
v 0.6 0.1 -0.2
v 0.6 0.2 -0.2
v -0.7 0.1 0.2
v -0.7 0.2 0.2
v -0.6 0.1 0.2
v -0.5 0.1 0.2
v -0.4 0.1 0.2
v -0.4 0.2 0.2
v -0.2 0.1 0.2
v -0.2 0.2 0.2
v -0.1 0.1 0.2
v 0 0.1 0.2
v 0.1 0.1 0.2
v 0.1 0.2 0.2
v 0.3 0.1 0.2
v 0.3 0.2 0.2
v 0.4 0.1 0.2
v 0.5 0.1 0.2
v 0.6 0.1 0.2
v 0.6 0.2 0.2
v -0.8 0.1 0.1
v -0.8 0.5 0.1
v -0.7 0.1 0.1
v -0.7 0.5 0.1
v 0.7 0.1 0.1
v 0.7 0.5 0.1
v 0.8 0.1 0.1
v 0.8 0.5 0.1
v -0.8 0.5 -0.1
v -0.8 0.6 -0.1
v -0.7 0.5 -0.1
v -0.7 0.6 -0.1
v 0.7 0.5 -0.1
v 0.7 0.6 -0.1
v 0.8 0.5 -0.1
v 0.8 0.6 -0.1
v -0.8 0.1 -0.2
v -0.8 0.5 -0.2
v -0.7 0.1 -0.2
v -0.7 0.2 -0.2
v -0.7 0.5 -0.2
v 0.7 0.1 -0.2
v 0.7 0.5 -0.2
v 0.8 0.1 -0.2
v 0.8 0.5 -0.2
v -0.8 0 -0.8
v -0.8 0.1 -0.8
v -0.7 0.1 -0.8
v -0.7 0.2 -0.8
v -0.4 0.1 -0.8
v -0.4 0.2 -0.8
v -0.2 0.1 -0.8
v -0.2 0.2 -0.8
v 0.1 0.1 -0.8
v 0.1 0.2 -0.8
v 0.3 0.1 -0.8
v 0.3 0.2 -0.8
v 0.6 0.1 -0.8
v 0.6 0.2 -0.8
v 0.8 0 -0.8
v 0.8 0.1 -0.8
v -0.8 0 0.8
v 0.8 0 0.8
v -0.8 0 0.2
v -0.6 0 0.2
v -0.5 0 0.2
v -0.4 0 0.2
v -0.2 0 0.2
v -0.1 0 0.2
v 0 0 0.2
v 0.1 0 0.2
v 0.3 0 0.2
v 0.4 0 0.2
v 0.5 0 0.2
v 0.6 0 0.2
v 0.8 0 0.2
v -0.8 0 0.1
v -0.6 0 0.1
v -0.5 0 0.1
v -0.4 0 0.1
v -0.2 0 0.1
v -0.1 0 0.1
v 0 0 0.1
v 0.1 0 0.1
v 0.3 0 0.1
v 0.4 0 0.1
v 0.5 0 0.1
v 0.6 0 0.1
v -0.8 0 -0.1
v -0.6 0 -0.1
v -0.5 0 -0.1
v -0.4 0 -0.1
v -0.2 0 -0.1
v -0.1 0 -0.1
v 0 0 -0.1
v 0.1 0 -0.1
v 0.3 0 -0.1
v 0.4 0 -0.1
v 0.5 0 -0.1
v 0.6 0 -0.1
v -0.8 0 -0.2
v -0.6 0 -0.2
v -0.5 0 -0.2
v -0.4 0 -0.2
v -0.2 0 -0.2
v -0.1 0 -0.2
v 0 0 -0.2
v 0.1 0 -0.2
v 0.3 0 -0.2
v 0.4 0 -0.2
v 0.5 0 -0.2
v 0.6 0 -0.2
v 0.8 0 -0.2
v -0.8 0 -0.8
v 0.8 0 -0.8
v -0.8 0.5 0.1
v -0.7 0.5 0.1
v 0.7 0.5 0.1
v 0.8 0.5 0.1
v -0.8 0.5 -0.1
v -0.7 0.5 -0.1
v 0.7 0.5 -0.1
v 0.8 0.5 -0.1
v -0.8 0.1 0.8
v -0.7 0.1 0.8
v -0.4 0.1 0.8
v -0.2 0.1 0.8
v 0.1 0.1 0.8
v 0.3 0.1 0.8
v 0.6 0.1 0.8
v 0.8 0.1 0.8
v -0.7 0.1 0.6
v -0.4 0.1 0.6
v -0.2 0.1 0.6
v 0.1 0.1 0.6
v 0.3 0.1 0.6
v 0.6 0.1 0.6
v -0.8 0.1 0.2
v -0.7 0.1 0.2
v -0.6 0.1 0.2
v -0.5 0.1 0.2
v -0.4 0.1 0.2
v -0.2 0.1 0.2
v -0.1 0.1 0.2
v 0 0.1 0.2
v 0.1 0.1 0.2
v 0.3 0.1 0.2
v 0.4 0.1 0.2
v 0.5 0.1 0.2
v 0.6 0.1 0.2
v 0.7 0.1 0.2
v 0.8 0.1 0.2
v -0.8 0.1 0.1
v -0.7 0.1 0.1
v -0.6 0.1 0.1
v -0.5 0.1 0.1
v -0.4 0.1 0.1
v -0.2 0.1 0.1
v -0.1 0.1 0.1
v 0 0.1 0.1
v 0.1 0.1 0.1
v 0.3 0.1 0.1
v 0.4 0.1 0.1
v 0.5 0.1 0.1
v 0.6 0.1 0.1
v 0.7 0.1 0.1
v 0.8 0.1 0.1
v -0.8 0.1 -0.1
v -0.7 0.1 -0.1
v -0.6 0.1 -0.1
v -0.5 0.1 -0.1
v -0.4 0.1 -0.1
v -0.2 0.1 -0.1
v -0.1 0.1 -0.1
v 0 0.1 -0.1
v 0.1 0.1 -0.1
v 0.3 0.1 -0.1
v 0.4 0.1 -0.1
v 0.5 0.1 -0.1
v 0.6 0.1 -0.1
v 0.7 0.1 -0.1
v 0.8 0.1 -0.1
v -0.8 0.1 -0.2
v -0.7 0.1 -0.2
v -0.6 0.1 -0.2
v -0.5 0.1 -0.2
v -0.4 0.1 -0.2
v -0.2 0.1 -0.2
v -0.1 0.1 -0.2
v 0 0.1 -0.2
v 0.1 0.1 -0.2
v 0.3 0.1 -0.2
v 0.4 0.1 -0.2
v 0.5 0.1 -0.2
v 0.6 0.1 -0.2
v 0.7 0.1 -0.2
v 0.8 0.1 -0.2
v -0.7 0.1 -0.6
v -0.4 0.1 -0.6
v -0.2 0.1 -0.6
v 0.1 0.1 -0.6
v 0.3 0.1 -0.6
v 0.6 0.1 -0.6
v -0.8 0.1 -0.8
v -0.7 0.1 -0.8
v -0.4 0.1 -0.8
v -0.2 0.1 -0.8
v 0.1 0.1 -0.8
v 0.3 0.1 -0.8
v 0.6 0.1 -0.8
v 0.8 0.1 -0.8
v -0.7 0.2 0.8
v -0.4 0.2 0.8
v -0.2 0.2 0.8
v 0.1 0.2 0.8
v 0.3 0.2 0.8
v 0.6 0.2 0.8
v -0.7 0.2 0.6
v -0.4 0.2 0.6
v -0.2 0.2 0.6
v 0.1 0.2 0.6
v 0.3 0.2 0.6
v 0.6 0.2 0.6
v -0.7 0.2 0.2
v -0.4 0.2 0.2
v -0.2 0.2 0.2
v 0.1 0.2 0.2
v 0.3 0.2 0.2
v 0.6 0.2 0.2
v -0.7 0.2 -0.2
v -0.4 0.2 -0.2
v -0.2 0.2 -0.2
v 0.1 0.2 -0.2
v 0.3 0.2 -0.2
v 0.6 0.2 -0.2
v -0.7 0.2 -0.6
v -0.4 0.2 -0.6
v -0.2 0.2 -0.6
v 0.1 0.2 -0.6
v 0.3 0.2 -0.6
v 0.6 0.2 -0.6
v -0.7 0.2 -0.8
v -0.4 0.2 -0.8
v -0.2 0.2 -0.8
v 0.1 0.2 -0.8
v 0.3 0.2 -0.8
v 0.6 0.2 -0.8
v -0.8 0.5 0.2
v -0.7 0.5 0.2
v 0.7 0.5 0.2
v 0.8 0.5 0.2
v -0.8 0.5 0.1
v -0.7 0.5 0.1
v 0.7 0.5 0.1
v 0.8 0.5 0.1
v -0.8 0.5 -0.1
v -0.7 0.5 -0.1
v 0.7 0.5 -0.1
v 0.8 0.5 -0.1
v -0.8 0.5 -0.2
v -0.7 0.5 -0.2
v 0.7 0.5 -0.2
v 0.8 0.5 -0.2
v -0.8 0.6 0.1
v -0.7 0.6 0.1
v 0.7 0.6 0.1
v 0.8 0.6 0.1
v -0.8 0.6 -0.1
v -0.7 0.6 -0.1
v 0.7 0.6 -0.1
v 0.8 0.6 -0.1

# faces
f 7/6/1 2/6/1 1/6/1
f 8/7/1 3/7/1 2/7/1
f 8/6/1 2/6/1 7/6/1
f 9/5/1 4/5/1 3/5/1
f 9/7/1 3/7/1 8/7/1
f 10/7/1 5/7/1 4/7/1
f 10/5/1 4/5/1 9/5/1
f 11/6/1 6/6/1 5/6/1
f 11/7/1 5/7/1 10/7/1
f 12/6/1 6/6/1 11/6/1
f 13/4/1 9/4/1 8/4/1
f 14/4/1 9/4/1 13/4/1
f 15/4/1 11/4/1 10/4/1
f 16/4/1 11/4/1 15/4/1
f 17/4/1 15/4/1 14/4/1
f 18/4/1 15/4/1 17/4/1
f 25/3/1 20/3/1 19/3/1
f 26/2/1 21/2/1 20/2/1
f 26/3/1 20/3/1 25/3/1
f 27/2/1 21/2/1 26/2/1
f 28/2/1 23/2/1 22/2/1
f 29/3/1 24/3/1 23/3/1
f 29/2/1 23/2/1 28/2/1
f 30/3/1 24/3/1 29/3/1
f 37/3/1 32/3/1 31/3/1
f 38/2/1 33/2/1 32/2/1
f 38/3/1 32/3/1 37/3/1
f 39/2/1 33/2/1 38/2/1
f 40/2/1 35/2/1 34/2/1
f 41/3/1 36/3/1 35/3/1
f 41/2/1 35/2/1 40/2/1
f 42/3/1 36/3/1 41/3/1
f 49/3/1 44/3/1 43/3/1
f 50/2/1 45/2/1 44/2/1
f 50/3/1 44/3/1 49/3/1
f 51/2/1 45/2/1 50/2/1
f 52/2/1 47/2/1 46/2/1
f 53/3/1 48/3/1 47/3/1
f 53/2/1 47/2/1 52/2/1
f 54/3/1 48/3/1 53/3/1
f 59/4/1 56/4/1 55/4/1
f 60/4/1 56/4/1 59/4/1
f 61/4/1 58/4/1 57/4/1
f 62/4/1 58/4/1 61/4/1
f 63/4/1 61/4/1 60/4/1
f 64/4/1 61/4/1 63/4/1
f 65/4/2 66/4/2 69/4/2
f 67/4/2 68/4/2 70/4/2
f 69/4/2 66/4/2 71/4/2
f 71/4/2 66/4/2 72/4/2
f 67/4/2 70/4/2 73/4/2
f 73/4/2 70/4/2 74/4/2
f 72/4/2 73/4/2 75/4/2
f 75/4/2 73/4/2 76/4/2
f 77/3/2 78/3/2 83/3/2
f 78/2/2 79/2/2 84/2/2
f 83/3/2 78/3/2 84/3/2
f 84/2/2 79/2/2 85/2/2
f 80/2/2 81/2/2 86/2/2
f 81/3/2 82/3/2 87/3/2
f 86/2/2 81/2/2 87/2/2
f 87/3/2 82/3/2 88/3/2
f 89/3/2 90/3/2 95/3/2
f 90/2/2 91/2/2 96/2/2
f 95/3/2 90/3/2 96/3/2
f 96/2/2 91/2/2 97/2/2
f 92/2/2 93/2/2 98/2/2
f 93/3/2 94/3/2 99/3/2
f 98/2/2 93/2/2 99/2/2
f 99/3/2 94/3/2 100/3/2
f 101/3/2 102/3/2 107/3/2
f 102/2/2 103/2/2 108/2/2
f 107/3/2 102/3/2 108/3/2
f 108/2/2 103/2/2 109/2/2
f 104/2/2 105/2/2 110/2/2
f 105/3/2 106/3/2 111/3/2
f 110/2/2 105/2/2 111/2/2
f 111/3/2 106/3/2 112/3/2
f 113/6/2 114/6/2 117/6/2
f 114/5/2 115/5/2 118/5/2
f 117/6/2 114/6/2 118/6/2
f 118/5/2 115/5/2 119/5/2
f 119/5/2 115/5/2 120/5/2
f 115/6/2 116/6/2 121/6/2
f 120/5/2 115/5/2 121/5/2
f 121/6/2 116/6/2 122/6/2
f 118/4/2 119/4/2 123/4/2
f 123/4/2 119/4/2 124/4/2
f 120/4/2 121/4/2 125/4/2
f 125/4/2 121/4/2 126/4/2
f 124/4/2 125/4/2 127/4/2
f 127/4/2 125/4/2 128/4/2
f 131/6/3 130/6/3 129/6/3
f 133/6/3 131/6/3 129/6/3
f 133/3/3 132/3/3 131/3/3
f 134/3/3 132/3/3 133/3/3
f 135/6/3 133/6/3 129/6/3
f 137/6/3 135/6/3 129/6/3
f 137/3/3 136/3/3 135/3/3
f 138/3/3 136/3/3 137/3/3
f 139/6/3 137/6/3 129/6/3
f 141/6/3 139/6/3 129/6/3
f 141/3/3 140/3/3 139/3/3
f 142/3/3 140/3/3 141/3/3
f 143/6/3 141/6/3 129/6/3
f 144/6/3 141/6/3 143/6/3
f 147/4/3 146/4/3 145/4/3
f 148/4/3 146/4/3 147/4/3
f 149/4/3 146/4/3 148/4/3
f 152/4/3 151/4/3 150/4/3
f 153/4/3 151/4/3 152/4/3
f 156/4/3 155/4/3 154/4/3
f 157/4/3 155/4/3 156/4/3
f 160/4/3 159/4/3 158/4/3
f 161/4/3 159/4/3 160/4/3
f 164/4/3 163/4/3 162/4/3
f 165/4/3 163/4/3 164/4/3
f 168/4/3 167/4/3 166/4/3
f 169/4/3 167/4/3 168/4/3
f 172/2/3 171/2/3 170/2/3
f 173/2/3 171/2/3 172/2/3
f 174/2/3 171/2/3 173/2/3
f 175/2/3 171/2/3 174/2/3
f 178/2/3 177/2/3 176/2/3
f 179/2/3 177/2/3 178/2/3
f 180/2/3 177/2/3 179/2/3
f 181/2/3 177/2/3 180/2/3
f 184/2/3 183/2/3 182/2/3
f 185/2/3 183/2/3 184/2/3
f 186/2/3 183/2/3 185/2/3
f 187/2/3 183/2/3 186/2/3
f 188/2/4 189/2/4 190/2/4
f 190/2/4 189/2/4 191/2/4
f 191/2/4 189/2/4 192/2/4
f 192/2/4 189/2/4 193/2/4
f 194/2/4 195/2/4 196/2/4
f 196/2/4 195/2/4 197/2/4
f 197/2/4 195/2/4 198/2/4
f 198/2/4 195/2/4 199/2/4
f 200/2/4 201/2/4 202/2/4
f 202/2/4 201/2/4 203/2/4
f 203/2/4 201/2/4 204/2/4
f 204/2/4 201/2/4 205/2/4
f 206/4/4 207/4/4 208/4/4
f 208/4/4 207/4/4 209/4/4
f 210/4/4 211/4/4 212/4/4
f 212/4/4 211/4/4 213/4/4
f 214/4/4 215/4/4 216/4/4
f 216/4/4 215/4/4 217/4/4
f 218/4/4 219/4/4 220/4/4
f 220/4/4 219/4/4 221/4/4
f 222/4/4 223/4/4 224/4/4
f 224/4/4 223/4/4 225/4/4
f 225/4/4 223/4/4 226/4/4
f 227/4/4 228/4/4 229/4/4
f 229/4/4 228/4/4 230/4/4
f 231/6/4 232/6/4 233/6/4
f 231/6/4 233/6/4 235/6/4
f 233/3/4 234/3/4 235/3/4
f 235/3/4 234/3/4 236/3/4
f 231/6/4 235/6/4 237/6/4
f 231/6/4 237/6/4 239/6/4
f 237/3/4 238/3/4 239/3/4
f 239/3/4 238/3/4 240/3/4
f 231/6/4 239/6/4 241/6/4
f 231/6/4 241/6/4 243/6/4
f 241/3/4 242/3/4 243/3/4
f 243/3/4 242/3/4 244/3/4
f 231/6/4 243/6/4 245/6/4
f 245/6/4 243/6/4 246/6/4
f 249/6/5 248/6/5 247/6/5
f 250/6/5 248/6/5 249/6/5
f 251/6/5 248/6/5 250/6/5
f 252/6/5 248/6/5 251/6/5
f 253/6/5 248/6/5 252/6/5
f 254/6/5 248/6/5 253/6/5
f 255/6/5 248/6/5 254/6/5
f 256/6/5 248/6/5 255/6/5
f 257/6/5 248/6/5 256/6/5
f 258/6/5 248/6/5 257/6/5
f 259/6/5 248/6/5 258/6/5
f 260/6/5 248/6/5 259/6/5
f 261/6/5 248/6/5 260/6/5
f 262/7/5 250/7/5 249/7/5
f 263/1/5 251/1/5 250/1/5
f 263/7/5 250/7/5 262/7/5
f 264/7/5 252/7/5 251/7/5
f 264/1/5 251/1/5 263/1/5
f 265/5/5 253/5/5 252/5/5
f 265/7/5 252/7/5 264/7/5
f 266/7/5 254/7/5 253/7/5
f 266/5/5 253/5/5 265/5/5
f 267/1/5 255/1/5 254/1/5
f 267/7/5 254/7/5 266/7/5
f 268/7/5 256/7/5 255/7/5
f 268/1/5 255/1/5 267/1/5
f 269/5/5 257/5/5 256/5/5
f 269/7/5 256/7/5 268/7/5
f 270/7/5 258/7/5 257/7/5
f 270/5/5 257/5/5 269/5/5
f 271/1/5 259/1/5 258/1/5
f 271/7/5 258/7/5 270/7/5
f 272/7/5 260/7/5 259/7/5
f 272/1/5 259/1/5 271/1/5
f 273/5/5 261/5/5 260/5/5
f 273/7/5 260/7/5 272/7/5
f 274/5/5 263/5/5 262/5/5
f 274/5/5 264/5/5 263/5/5
f 274/5/5 273/5/5 272/5/5
f 274/5/5 272/5/5 271/5/5
f 274/5/5 271/5/5 270/5/5
f 274/5/5 270/5/5 269/5/5
f 274/5/5 269/5/5 268/5/5
f 274/5/5 268/5/5 267/5/5
f 274/5/5 267/5/5 266/5/5
f 274/5/5 266/5/5 265/5/5
f 274/5/5 265/5/5 264/5/5
f 275/5/5 273/5/5 274/5/5
f 276/5/5 273/5/5 275/5/5
f 277/5/5 273/5/5 276/5/5
f 278/5/5 273/5/5 277/5/5
f 279/5/5 273/5/5 278/5/5
f 280/5/5 273/5/5 279/5/5
f 281/5/5 273/5/5 280/5/5
f 282/5/5 273/5/5 281/5/5
f 283/5/5 273/5/5 282/5/5
f 284/5/5 273/5/5 283/5/5
f 285/5/5 261/5/5 273/5/5
f 285/5/5 273/5/5 284/5/5
f 286/7/5 275/7/5 274/7/5
f 287/1/5 276/1/5 275/1/5
f 287/7/5 275/7/5 286/7/5
f 288/7/5 277/7/5 276/7/5
f 288/1/5 276/1/5 287/1/5
f 289/5/5 278/5/5 277/5/5
f 289/7/5 277/7/5 288/7/5
f 290/7/5 279/7/5 278/7/5
f 290/5/5 278/5/5 289/5/5
f 291/1/5 280/1/5 279/1/5
f 291/7/5 279/7/5 290/7/5
f 292/7/5 281/7/5 280/7/5
f 292/1/5 280/1/5 291/1/5
f 293/5/5 282/5/5 281/5/5
f 293/7/5 281/7/5 292/7/5
f 294/7/5 283/7/5 282/7/5
f 294/5/5 282/5/5 293/5/5
f 295/1/5 284/1/5 283/1/5
f 295/7/5 283/7/5 294/7/5
f 296/7/5 285/7/5 284/7/5
f 296/1/5 284/1/5 295/1/5
f 297/5/5 261/5/5 285/5/5
f 297/7/5 285/7/5 296/7/5
f 298/5/5 261/5/5 297/5/5
f 299/6/5 294/6/5 293/6/5
f 299/6/5 296/6/5 295/6/5
f 299/6/5 298/6/5 297/6/5
f 299/6/5 297/6/5 296/6/5
f 299/6/5 295/6/5 294/6/5
f 299/6/5 293/6/5 292/6/5
f 299/6/5 292/6/5 291/6/5
f 299/6/5 291/6/5 290/6/5
f 299/6/5 290/6/5 289/6/5
f 299/6/5 289/6/5 288/6/5
f 299/6/5 288/6/5 287/6/5
f 299/6/5 287/6/5 286/6/5
f 300/6/5 298/6/5 299/6/5
f 305/4/5 302/4/5 301/4/5
f 306/4/5 302/4/5 305/4/5
f 307/4/5 304/4/5 303/4/5
f 308/4/5 304/4/5 307/4/5
f 309/6/6 310/6/6 317/6/6
f 311/6/6 312/6/6 318/6/6
f 318/6/6 312/6/6 319/6/6
f 313/6/6 314/6/6 320/6/6
f 320/6/6 314/6/6 321/6/6
f 315/6/6 316/6/6 322/6/6
f 309/6/6 317/6/6 323/6/6
f 323/6/6 317/6/6 324/6/6
f 318/6/6 319/6/6 327/6/6
f 327/6/6 319/6/6 328/6/6
f 320/6/6 321/6/6 331/6/6
f 331/6/6 321/6/6 332/6/6
f 322/6/6 316/6/6 335/6/6
f 335/6/6 316/6/6 336/6/6
f 336/6/6 316/6/6 337/6/6
f 324/7/6 325/7/6 339/7/6
f 325/1/6 326/1/6 340/1/6
f 339/7/6 325/7/6 340/7/6
f 326/7/6 327/7/6 341/7/6
f 340/1/6 326/1/6 341/1/6
f 327/5/6 328/5/6 342/5/6
f 341/7/6 327/7/6 342/7/6
f 328/7/6 329/7/6 343/7/6
f 342/5/6 328/5/6 343/5/6
f 329/1/6 330/1/6 344/1/6
f 343/7/6 329/7/6 344/7/6
f 330/7/6 331/7/6 345/7/6
f 344/1/6 330/1/6 345/1/6
f 331/5/6 332/5/6 346/5/6
f 345/7/6 331/7/6 346/7/6
f 332/7/6 333/7/6 347/7/6
f 346/5/6 332/5/6 347/5/6
f 333/1/6 334/1/6 348/1/6
f 347/7/6 333/7/6 348/7/6
f 334/7/6 335/7/6 349/7/6
f 348/1/6 334/1/6 349/1/6
f 335/5/6 336/5/6 350/5/6
f 349/7/6 335/7/6 350/7/6
f 350/5/6 336/5/6 351/5/6
f 342/5/6 343/5/6 353/5/6
f 351/5/6 352/5/6 353/5/6
f 350/5/6 351/5/6 353/5/6
f 349/5/6 350/5/6 353/5/6
f 346/5/6 347/5/6 353/5/6
f 347/5/6 348/5/6 353/5/6
f 338/5/6 339/5/6 353/5/6
f 345/5/6 346/5/6 353/5/6
f 344/5/6 345/5/6 353/5/6
f 343/5/6 344/5/6 353/5/6
f 348/5/6 349/5/6 353/5/6
f 341/5/6 342/5/6 353/5/6
f 340/5/6 341/5/6 353/5/6
f 339/5/6 340/5/6 353/5/6
f 353/5/6 352/5/6 354/5/6
f 354/5/6 352/5/6 355/5/6
f 355/5/6 352/5/6 356/5/6
f 356/5/6 352/5/6 357/5/6
f 357/5/6 352/5/6 358/5/6
f 358/5/6 352/5/6 359/5/6
f 359/5/6 352/5/6 360/5/6
f 360/5/6 352/5/6 361/5/6
f 361/5/6 352/5/6 362/5/6
f 362/5/6 352/5/6 363/5/6
f 363/5/6 352/5/6 364/5/6
f 364/5/6 352/5/6 365/5/6
f 365/5/6 352/5/6 366/5/6
f 366/5/6 352/5/6 367/5/6
f 354/7/6 355/7/6 369/7/6
f 355/1/6 356/1/6 370/1/6
f 369/7/6 355/7/6 370/7/6
f 356/7/6 357/7/6 371/7/6
f 370/1/6 356/1/6 371/1/6
f 357/5/6 358/5/6 372/5/6
f 371/7/6 357/7/6 372/7/6
f 358/7/6 359/7/6 373/7/6
f 372/5/6 358/5/6 373/5/6
f 359/1/6 360/1/6 374/1/6
f 373/7/6 359/7/6 374/7/6
f 360/7/6 361/7/6 375/7/6
f 374/1/6 360/1/6 375/1/6
f 361/5/6 362/5/6 376/5/6
f 375/7/6 361/7/6 376/7/6
f 362/7/6 363/7/6 377/7/6
f 376/5/6 362/5/6 377/5/6
f 363/1/6 364/1/6 378/1/6
f 377/7/6 363/7/6 378/7/6
f 364/7/6 365/7/6 379/7/6
f 378/1/6 364/1/6 379/1/6
f 365/5/6 366/5/6 380/5/6
f 379/7/6 365/7/6 380/7/6
f 380/5/6 366/5/6 381/5/6
f 368/6/6 369/6/6 383/6/6
f 372/6/6 373/6/6 384/6/6
f 384/6/6 373/6/6 385/6/6
f 376/6/6 377/6/6 386/6/6
f 386/6/6 377/6/6 387/6/6
f 381/6/6 382/6/6 388/6/6
f 380/6/6 381/6/6 388/6/6
f 368/6/6 383/6/6 389/6/6
f 389/6/6 383/6/6 390/6/6
f 384/6/6 385/6/6 391/6/6
f 391/6/6 385/6/6 392/6/6
f 386/6/6 387/6/6 393/6/6
f 393/6/6 387/6/6 394/6/6
f 388/6/6 382/6/6 395/6/6
f 395/6/6 382/6/6 396/6/6
f 397/3/6 398/3/6 403/3/6
f 403/3/6 398/3/6 404/3/6
f 399/3/6 400/3/6 405/3/6
f 405/3/6 400/3/6 406/3/6
f 401/3/6 402/3/6 407/3/6
f 407/3/6 402/3/6 408/3/6
f 403/2/6 404/2/6 409/2/6
f 409/2/6 404/2/6 410/2/6
f 405/2/6 406/2/6 411/2/6
f 411/2/6 406/2/6 412/2/6
f 407/2/6 408/2/6 413/2/6
f 413/2/6 408/2/6 414/2/6
f 415/2/6 416/2/6 421/2/6
f 421/2/6 416/2/6 422/2/6
f 417/2/6 418/2/6 423/2/6
f 423/2/6 418/2/6 424/2/6
f 419/2/6 420/2/6 425/2/6
f 425/2/6 420/2/6 426/2/6
f 421/3/6 422/3/6 427/3/6
f 427/3/6 422/3/6 428/3/6
f 423/3/6 424/3/6 429/3/6
f 429/3/6 424/3/6 430/3/6
f 425/3/6 426/3/6 431/3/6
f 431/3/6 426/3/6 432/3/6
f 433/4/6 434/4/6 437/4/6
f 437/4/6 434/4/6 438/4/6
f 435/4/6 436/4/6 439/4/6
f 439/4/6 436/4/6 440/4/6
f 441/4/6 442/4/6 445/4/6
f 445/4/6 442/4/6 446/4/6
f 443/4/6 444/4/6 447/4/6
f 447/4/6 444/4/6 448/4/6
f 449/4/6 450/4/6 453/4/6
f 453/4/6 450/4/6 454/4/6
f 451/4/6 452/4/6 455/4/6
f 455/4/6 452/4/6 456/4/6
