# MagicaVoxel @ Ephtracy

# group
o 

# material
mtllib botanic_lvl1.mtl
usemtl palette

# normals
vn -1 0 0
vn 1 0 0
vn 0 0 1
vn 0 0 -1
vn 0 -1 0
vn 0 1 0

# texcoords
vt 0.533203 0.5
vt 0.603516 0.5
vt 0.791016 0.5
vt 0.970703 0.5
vt 0.978516 0.5
vt 0.986328 0.5

# verts
v -0.8 0 0.8
v -0.8 0 0.2
v -0.8 0 0.1
v -0.8 0 -0.1
v -0.8 0 -0.2
v -0.8 0 -0.8
v -0.8 0.1 0.8
v -0.8 0.1 0.2
v -0.8 0.1 0.1
v -0.8 0.1 -0.1
v -0.8 0.1 -0.2
v -0.8 0.1 -0.8
v -0.8 0.5 0.2
v -0.8 0.5 0.1
v -0.8 0.5 -0.1
v -0.8 0.5 -0.2
v -0.8 0.6 0.1
v -0.8 0.6 -0.1
v -0.2 0.1 0.8
v -0.2 0.1 0.7
v -0.2 0.1 -0.7
v -0.2 0.1 -0.8
v -0.2 0.5 0.8
v -0.2 0.5 0.7
v -0.2 0.5 -0.7
v -0.2 0.5 -0.8
v -0.1 0.5 0.8
v -0.1 0.5 0.7
v -0.1 0.5 -0.7
v -0.1 0.5 -0.8
v -0.1 0.6 0.8
v -0.1 0.6 0.7
v -0.1 0.6 -0.7
v -0.1 0.6 -0.8
v 0.1 0.1 0.8
v 0.1 0.1 0.7
v 0.1 0.1 -0.7
v 0.1 0.1 -0.8
v 0.1 0.5 0.8
v 0.1 0.5 0.7
v 0.1 0.5 -0.7
v 0.1 0.5 -0.8
v 0.4 0.4 -0.5
v 0.4 0.4 -0.8
v 0.4 0.6 -0.5
v 0.4 0.6 -0.8
v 0.5 0.1 -0.6
v 0.5 0.1 -0.7
v 0.5 0.4 -0.6
v 0.5 0.4 -0.7
v 0.5 0.6 -0.6
v 0.5 0.6 -0.7
v 0.5 0.7 -0.6
v 0.5 0.7 -0.7
v 0.7 0.1 0.2
v 0.7 0.1 0.1
v 0.7 0.1 -0.1
v 0.7 0.1 -0.2
v 0.7 0.5 0.2
v 0.7 0.5 0.1
v 0.7 0.5 -0.1
v 0.7 0.5 -0.2
v 0.7 0.6 0.1
v 0.7 0.6 -0.1
v -0.7 0.1 0.2
v -0.7 0.1 0.1
v -0.7 0.1 -0.1
v -0.7 0.1 -0.2
v -0.7 0.5 0.2
v -0.7 0.5 0.1
v -0.7 0.5 -0.1
v -0.7 0.5 -0.2
v -0.7 0.6 0.1
v -0.7 0.6 -0.1
v -0.1 0.1 0.8
v -0.1 0.1 0.7
v -0.1 0.1 -0.7
v -0.1 0.1 -0.8
v -0.1 0.5 0.8
v -0.1 0.5 0.7
v -0.1 0.5 -0.7
v -0.1 0.5 -0.8
v 0.1 0.5 0.8
v 0.1 0.5 0.7
v 0.1 0.5 -0.7
v 0.1 0.5 -0.8
v 0.1 0.6 0.8
v 0.1 0.6 0.7
v 0.1 0.6 -0.7
v 0.1 0.6 -0.8
v 0.2 0.1 0.8
v 0.2 0.1 0.7
v 0.2 0.1 -0.7
v 0.2 0.1 -0.8
v 0.2 0.5 0.8
v 0.2 0.5 0.7
v 0.2 0.5 -0.7
v 0.2 0.5 -0.8
v 0.6 0.1 -0.6
v 0.6 0.1 -0.7
v 0.6 0.4 -0.6
v 0.6 0.4 -0.7
v 0.6 0.6 -0.6
v 0.6 0.6 -0.7
v 0.6 0.7 -0.6
v 0.6 0.7 -0.7
v 0.7 0.4 -0.5
v 0.7 0.4 -0.8
v 0.7 0.6 -0.5
v 0.7 0.6 -0.8
v 0.8 0 0.8
v 0.8 0 0.2
v 0.8 0 0.1
v 0.8 0 -0.1
v 0.8 0 -0.2
v 0.8 0 -0.8
v 0.8 0.1 0.8
v 0.8 0.1 0.2
v 0.8 0.1 0.1
v 0.8 0.1 -0.1
v 0.8 0.1 -0.2
v 0.8 0.1 -0.8
v 0.8 0.5 0.2
v 0.8 0.5 0.1
v 0.8 0.5 -0.1
v 0.8 0.5 -0.2
v 0.8 0.6 0.1
v 0.8 0.6 -0.1
v -0.8 0 0.8
v -0.8 0.1 0.8
v -0.2 0 0.8
v -0.2 0.1 0.8
v -0.2 0.5 0.8
v -0.1 0 0.8
v -0.1 0.1 0.8
v -0.1 0.5 0.8
v -0.1 0.6 0.8
v 0.1 0 0.8
v 0.1 0.1 0.8
v 0.1 0.5 0.8
v 0.1 0.6 0.8
v 0.2 0 0.8
v 0.2 0.1 0.8
v 0.2 0.5 0.8
v 0.8 0 0.8
v 0.8 0.1 0.8
v -0.8 0.1 0.2
v -0.8 0.5 0.2
v -0.7 0.1 0.2
v -0.7 0.5 0.2
v 0.7 0.1 0.2
v 0.7 0.5 0.2
v 0.8 0.1 0.2
v 0.8 0.5 0.2
v -0.8 0.5 0.1
v -0.8 0.6 0.1
v -0.7 0.5 0.1
v -0.7 0.6 0.1
v 0.7 0.5 0.1
v 0.7 0.6 0.1
v 0.8 0.5 0.1
v 0.8 0.6 0.1
v -0.8 0.1 -0.1
v -0.8 0.5 -0.1
v -0.7 0.1 -0.1
v -0.7 0.5 -0.1
v 0.7 0.1 -0.1
v 0.7 0.5 -0.1
v 0.8 0.1 -0.1
v 0.8 0.5 -0.1
v 0.4 0.4 -0.5
v 0.4 0.6 -0.5
v 0.7 0.4 -0.5
v 0.7 0.6 -0.5
v 0.5 0.1 -0.6
v 0.5 0.4 -0.6
v 0.5 0.6 -0.6
v 0.5 0.7 -0.6
v 0.6 0.1 -0.6
v 0.6 0.4 -0.6
v 0.6 0.6 -0.6
v 0.6 0.7 -0.6
v -0.2 0.1 -0.7
v -0.2 0.5 -0.7
v -0.1 0.1 -0.7
v -0.1 0.5 -0.7
v -0.1 0.6 -0.7
v 0.1 0.1 -0.7
v 0.1 0.5 -0.7
v 0.1 0.6 -0.7
v 0.2 0.1 -0.7
v 0.2 0.5 -0.7
v -0.2 0.1 0.7
v -0.2 0.5 0.7
v -0.1 0.1 0.7
v -0.1 0.5 0.7
v -0.1 0.6 0.7
v 0.1 0.1 0.7
v 0.1 0.5 0.7
v 0.1 0.6 0.7
v 0.2 0.1 0.7
v 0.2 0.5 0.7
v -0.8 0.1 0.1
v -0.8 0.5 0.1
v -0.7 0.1 0.1
v -0.7 0.5 0.1
v 0.7 0.1 0.1
v 0.7 0.5 0.1
v 0.8 0.1 0.1
v 0.8 0.5 0.1
v -0.8 0.5 -0.1
v -0.8 0.6 -0.1
v -0.7 0.5 -0.1
v -0.7 0.6 -0.1
v 0.7 0.5 -0.1
v 0.7 0.6 -0.1
v 0.8 0.5 -0.1
v 0.8 0.6 -0.1
v -0.8 0.1 -0.2
v -0.8 0.5 -0.2
v -0.7 0.1 -0.2
v -0.7 0.5 -0.2
v 0.7 0.1 -0.2
v 0.7 0.5 -0.2
v 0.8 0.1 -0.2
v 0.8 0.5 -0.2
v 0.5 0.1 -0.7
v 0.5 0.4 -0.7
v 0.5 0.6 -0.7
v 0.5 0.7 -0.7
v 0.6 0.1 -0.7
v 0.6 0.4 -0.7
v 0.6 0.6 -0.7
v 0.6 0.7 -0.7
v -0.8 0 -0.8
v -0.8 0.1 -0.8
v -0.2 0 -0.8
v -0.2 0.1 -0.8
v -0.2 0.5 -0.8
v -0.1 0 -0.8
v -0.1 0.1 -0.8
v -0.1 0.5 -0.8
v -0.1 0.6 -0.8
v 0.1 0 -0.8
v 0.1 0.1 -0.8
v 0.1 0.5 -0.8
v 0.1 0.6 -0.8
v 0.2 0 -0.8
v 0.2 0.1 -0.8
v 0.2 0.5 -0.8
v 0.4 0.4 -0.8
v 0.4 0.6 -0.8
v 0.7 0.4 -0.8
v 0.7 0.6 -0.8
v 0.8 0 -0.8
v 0.8 0.1 -0.8
v -0.8 0 0.8
v -0.2 0 0.8
v -0.1 0 0.8
v 0.1 0 0.8
v 0.2 0 0.8
v 0.8 0 0.8
v -0.3 0 0.5
v -0.2 0 0.5
v 0.2 0 0.5
v 0.3 0 0.5
v -0.4 0 0.4
v -0.3 0 0.4
v -0.2 0 0.4
v -0.1 0 0.4
v 0.1 0 0.4
v 0.2 0 0.4
v 0.3 0 0.4
v 0.4 0 0.4
v -0.5 0 0.3
v -0.4 0 0.3
v -0.3 0 0.3
v -0.2 0 0.3
v 0.2 0 0.3
v 0.3 0 0.3
v 0.4 0 0.3
v 0.5 0 0.3
v -0.8 0 0.2
v -0.5 0 0.2
v -0.4 0 0.2
v -0.3 0 0.2
v 0.3 0 0.2
v 0.4 0 0.2
v 0.5 0 0.2
v 0.8 0 0.2
v -0.8 0 0.1
v -0.4 0 0.1
v 0.4 0 0.1
v 0.8 0 0.1
v -0.8 0 -0.1
v -0.4 0 -0.1
v 0.4 0 -0.1
v 0.8 0 -0.1
v -0.8 0 -0.2
v -0.5 0 -0.2
v -0.4 0 -0.2
v -0.3 0 -0.2
v 0.3 0 -0.2
v 0.4 0 -0.2
v 0.5 0 -0.2
v 0.8 0 -0.2
v -0.5 0 -0.3
v -0.4 0 -0.3
v -0.3 0 -0.3
v -0.2 0 -0.3
v 0.2 0 -0.3
v 0.3 0 -0.3
v 0.4 0 -0.3
v 0.5 0 -0.3
v -0.4 0 -0.4
v -0.3 0 -0.4
v -0.2 0 -0.4
v -0.1 0 -0.4
v 0.1 0 -0.4
v 0.2 0 -0.4
v 0.3 0 -0.4
v 0.4 0 -0.4
v -0.3 0 -0.5
v -0.2 0 -0.5
v 0.2 0 -0.5
v 0.3 0 -0.5
v -0.8 0 -0.8
v -0.2 0 -0.8
v -0.1 0 -0.8
v 0.1 0 -0.8
v 0.2 0 -0.8
v 0.8 0 -0.8
v 0.4 0.4 -0.5
v 0.7 0.4 -0.5
v 0.5 0.4 -0.6
v 0.6 0.4 -0.6
v 0.5 0.4 -0.7
v 0.6 0.4 -0.7
v 0.4 0.4 -0.8
v 0.7 0.4 -0.8
v -0.1 0.5 0.8
v 0.1 0.5 0.8
v -0.1 0.5 0.7
v 0.1 0.5 0.7
v -0.8 0.5 0.1
v -0.7 0.5 0.1
v 0.7 0.5 0.1
v 0.8 0.5 0.1
v -0.8 0.5 -0.1
v -0.7 0.5 -0.1
v 0.7 0.5 -0.1
v 0.8 0.5 -0.1
v -0.1 0.5 -0.7
v 0.1 0.5 -0.7
v -0.1 0.5 -0.8
v 0.1 0.5 -0.8
v -0.8 0.1 0.8
v -0.2 0.1 0.8
v -0.1 0.1 0.8
v 0.1 0.1 0.8
v 0.2 0.1 0.8
v 0.8 0.1 0.8
v -0.2 0.1 0.7
v -0.1 0.1 0.7
v 0.1 0.1 0.7
v 0.2 0.1 0.7
v -0.3 0.1 0.5
v -0.2 0.1 0.5
v 0.2 0.1 0.5
v 0.3 0.1 0.5
v -0.4 0.1 0.4
v -0.3 0.1 0.4
v -0.2 0.1 0.4
v -0.1 0.1 0.4
v 0.1 0.1 0.4
v 0.2 0.1 0.4
v 0.3 0.1 0.4
v 0.4 0.1 0.4
v -0.5 0.1 0.3
v -0.4 0.1 0.3
v -0.3 0.1 0.3
v -0.2 0.1 0.3
v 0.2 0.1 0.3
v 0.3 0.1 0.3
v 0.4 0.1 0.3
v 0.5 0.1 0.3
v -0.8 0.1 0.2
v -0.7 0.1 0.2
v -0.5 0.1 0.2
v -0.4 0.1 0.2
v -0.3 0.1 0.2
v 0.3 0.1 0.2
v 0.4 0.1 0.2
v 0.5 0.1 0.2
v 0.7 0.1 0.2
v 0.8 0.1 0.2
v -0.8 0.1 0.1
v -0.7 0.1 0.1
v -0.4 0.1 0.1
v 0.4 0.1 0.1
v 0.7 0.1 0.1
v 0.8 0.1 0.1
v -0.8 0.1 -0.1
v -0.7 0.1 -0.1
v -0.4 0.1 -0.1
v 0.4 0.1 -0.1
v 0.7 0.1 -0.1
v 0.8 0.1 -0.1
v -0.8 0.1 -0.2
v -0.7 0.1 -0.2
v -0.5 0.1 -0.2
v -0.4 0.1 -0.2
v -0.3 0.1 -0.2
v 0.3 0.1 -0.2
v 0.4 0.1 -0.2
v 0.5 0.1 -0.2
v 0.7 0.1 -0.2
v 0.8 0.1 -0.2
v -0.5 0.1 -0.3
v -0.4 0.1 -0.3
v -0.3 0.1 -0.3
v -0.2 0.1 -0.3
v 0.2 0.1 -0.3
v 0.3 0.1 -0.3
v 0.4 0.1 -0.3
v 0.5 0.1 -0.3
v -0.4 0.1 -0.4
v -0.3 0.1 -0.4
v -0.2 0.1 -0.4
v -0.1 0.1 -0.4
v 0.1 0.1 -0.4
v 0.2 0.1 -0.4
v 0.3 0.1 -0.4
v 0.4 0.1 -0.4
v -0.3 0.1 -0.5
v -0.2 0.1 -0.5
v 0.2 0.1 -0.5
v 0.3 0.1 -0.5
v 0.5 0.1 -0.6
v 0.6 0.1 -0.6
v -0.2 0.1 -0.7
v -0.1 0.1 -0.7
v 0.1 0.1 -0.7
v 0.2 0.1 -0.7
v 0.5 0.1 -0.7
v 0.6 0.1 -0.7
v -0.8 0.1 -0.8
v -0.2 0.1 -0.8
v -0.1 0.1 -0.8
v 0.1 0.1 -0.8
v 0.2 0.1 -0.8
v 0.8 0.1 -0.8
v -0.2 0.5 0.8
v -0.1 0.5 0.8
v 0.1 0.5 0.8
v 0.2 0.5 0.8
v -0.2 0.5 0.7
v -0.1 0.5 0.7
v 0.1 0.5 0.7
v 0.2 0.5 0.7
v -0.8 0.5 0.2
v -0.7 0.5 0.2
v 0.7 0.5 0.2
v 0.8 0.5 0.2
v -0.8 0.5 0.1
v -0.7 0.5 0.1
v 0.7 0.5 0.1
v 0.8 0.5 0.1
v -0.8 0.5 -0.1
v -0.7 0.5 -0.1
v 0.7 0.5 -0.1
v 0.8 0.5 -0.1
v -0.8 0.5 -0.2
v -0.7 0.5 -0.2
v 0.7 0.5 -0.2
v 0.8 0.5 -0.2
v -0.2 0.5 -0.7
v -0.1 0.5 -0.7
v 0.1 0.5 -0.7
v 0.2 0.5 -0.7
v -0.2 0.5 -0.8
v -0.1 0.5 -0.8
v 0.1 0.5 -0.8
v 0.2 0.5 -0.8
v -0.1 0.6 0.8
v 0.1 0.6 0.8
v -0.1 0.6 0.7
v 0.1 0.6 0.7
v -0.8 0.6 0.1
v -0.7 0.6 0.1
v 0.7 0.6 0.1
v 0.8 0.6 0.1
v -0.8 0.6 -0.1
v -0.7 0.6 -0.1
v 0.7 0.6 -0.1
v 0.8 0.6 -0.1
v 0.4 0.6 -0.5
v 0.7 0.6 -0.5
v 0.5 0.6 -0.6
v 0.6 0.6 -0.6
v -0.1 0.6 -0.7
v 0.1 0.6 -0.7
v 0.5 0.6 -0.7
v 0.6 0.6 -0.7
v -0.1 0.6 -0.8
v 0.1 0.6 -0.8
v 0.4 0.6 -0.8
v 0.7 0.6 -0.8
v 0.5 0.7 -0.6
v 0.6 0.7 -0.6
v 0.5 0.7 -0.7
v 0.6 0.7 -0.7

# faces
f 7/2/1 2/2/1 1/2/1
f 8/6/1 3/6/1 2/6/1
f 8/2/1 2/2/1 7/2/1
f 9/5/1 4/5/1 3/5/1
f 9/6/1 3/6/1 8/6/1
f 10/6/1 5/6/1 4/6/1
f 10/5/1 4/5/1 9/5/1
f 11/2/1 6/2/1 5/2/1
f 11/6/1 5/6/1 10/6/1
f 12/2/1 6/2/1 11/2/1
f 13/4/1 9/4/1 8/4/1
f 14/4/1 9/4/1 13/4/1
f 15/4/1 11/4/1 10/4/1
f 16/4/1 11/4/1 15/4/1
f 17/4/1 15/4/1 14/4/1
f 18/4/1 15/4/1 17/4/1
f 23/4/1 20/4/1 19/4/1
f 24/4/1 20/4/1 23/4/1
f 25/4/1 22/4/1 21/4/1
f 26/4/1 22/4/1 25/4/1
f 31/4/1 28/4/1 27/4/1
f 32/4/1 28/4/1 31/4/1
f 33/4/1 30/4/1 29/4/1
f 34/4/1 30/4/1 33/4/1
f 39/4/1 36/4/1 35/4/1
f 40/4/1 36/4/1 39/4/1
f 41/4/1 38/4/1 37/4/1
f 42/4/1 38/4/1 41/4/1
f 45/3/1 44/3/1 43/3/1
f 46/3/1 44/3/1 45/3/1
f 49/1/1 48/1/1 47/1/1
f 50/1/1 48/1/1 49/1/1
f 53/3/1 52/3/1 51/3/1
f 54/3/1 52/3/1 53/3/1
f 59/4/1 56/4/1 55/4/1
f 60/4/1 56/4/1 59/4/1
f 61/4/1 58/4/1 57/4/1
f 62/4/1 58/4/1 61/4/1
f 63/4/1 61/4/1 60/4/1
f 64/4/1 61/4/1 63/4/1
f 65/4/2 66/4/2 69/4/2
f 69/4/2 66/4/2 70/4/2
f 67/4/2 68/4/2 71/4/2
f 71/4/2 68/4/2 72/4/2
f 70/4/2 71/4/2 73/4/2
f 73/4/2 71/4/2 74/4/2
f 75/4/2 76/4/2 79/4/2
f 79/4/2 76/4/2 80/4/2
f 77/4/2 78/4/2 81/4/2
f 81/4/2 78/4/2 82/4/2
f 83/4/2 84/4/2 87/4/2
f 87/4/2 84/4/2 88/4/2
f 85/4/2 86/4/2 89/4/2
f 89/4/2 86/4/2 90/4/2
f 91/4/2 92/4/2 95/4/2
f 95/4/2 92/4/2 96/4/2
f 93/4/2 94/4/2 97/4/2
f 97/4/2 94/4/2 98/4/2
f 99/1/2 100/1/2 101/1/2
f 101/1/2 100/1/2 102/1/2
f 103/3/2 104/3/2 105/3/2
f 105/3/2 104/3/2 106/3/2
f 107/3/2 108/3/2 109/3/2
f 109/3/2 108/3/2 110/3/2
f 111/2/2 112/2/2 117/2/2
f 112/6/2 113/6/2 118/6/2
f 117/2/2 112/2/2 118/2/2
f 113/5/2 114/5/2 119/5/2
f 118/6/2 113/6/2 119/6/2
f 114/6/2 115/6/2 120/6/2
f 119/5/2 114/5/2 120/5/2
f 115/2/2 116/2/2 121/2/2
f 120/6/2 115/6/2 121/6/2
f 121/2/2 116/2/2 122/2/2
f 118/4/2 119/4/2 123/4/2
f 123/4/2 119/4/2 124/4/2
f 120/4/2 121/4/2 125/4/2
f 125/4/2 121/4/2 126/4/2
f 124/4/2 125/4/2 127/4/2
f 127/4/2 125/4/2 128/4/2
f 131/2/3 130/2/3 129/2/3
f 132/2/3 130/2/3 131/2/3
f 134/6/3 132/6/3 131/6/3
f 135/4/3 133/4/3 132/4/3
f 135/6/3 132/6/3 134/6/3
f 136/4/3 133/4/3 135/4/3
f 138/5/3 135/5/3 134/5/3
f 139/5/3 135/5/3 138/5/3
f 140/4/3 137/4/3 136/4/3
f 141/4/3 137/4/3 140/4/3
f 142/6/3 139/6/3 138/6/3
f 143/4/3 140/4/3 139/4/3
f 143/6/3 139/6/3 142/6/3
f 144/4/3 140/4/3 143/4/3
f 145/2/3 143/2/3 142/2/3
f 146/2/3 143/2/3 145/2/3
f 149/4/3 148/4/3 147/4/3
f 150/4/3 148/4/3 149/4/3
f 153/4/3 152/4/3 151/4/3
f 154/4/3 152/4/3 153/4/3
f 157/4/3 156/4/3 155/4/3
f 158/4/3 156/4/3 157/4/3
f 161/4/3 160/4/3 159/4/3
f 162/4/3 160/4/3 161/4/3
f 165/4/3 164/4/3 163/4/3
f 166/4/3 164/4/3 165/4/3
f 169/4/3 168/4/3 167/4/3
f 170/4/3 168/4/3 169/4/3
f 173/3/3 172/3/3 171/3/3
f 174/3/3 172/3/3 173/3/3
f 179/1/3 176/1/3 175/1/3
f 180/1/3 176/1/3 179/1/3
f 181/3/3 178/3/3 177/3/3
f 182/3/3 178/3/3 181/3/3
f 185/4/3 184/4/3 183/4/3
f 186/4/3 184/4/3 185/4/3
f 189/4/3 187/4/3 186/4/3
f 190/4/3 187/4/3 189/4/3
f 191/4/3 189/4/3 188/4/3
f 192/4/3 189/4/3 191/4/3
f 193/4/4 194/4/4 195/4/4
f 195/4/4 194/4/4 196/4/4
f 196/4/4 197/4/4 199/4/4
f 199/4/4 197/4/4 200/4/4
f 198/4/4 199/4/4 201/4/4
f 201/4/4 199/4/4 202/4/4
f 203/4/4 204/4/4 205/4/4
f 205/4/4 204/4/4 206/4/4
f 207/4/4 208/4/4 209/4/4
f 209/4/4 208/4/4 210/4/4
f 211/4/4 212/4/4 213/4/4
f 213/4/4 212/4/4 214/4/4
f 215/4/4 216/4/4 217/4/4
f 217/4/4 216/4/4 218/4/4
f 219/4/4 220/4/4 221/4/4
f 221/4/4 220/4/4 222/4/4
f 223/4/4 224/4/4 225/4/4
f 225/4/4 224/4/4 226/4/4
f 227/1/4 228/1/4 231/1/4
f 231/1/4 228/1/4 232/1/4
f 229/3/4 230/3/4 233/3/4
f 233/3/4 230/3/4 234/3/4
f 235/2/4 236/2/4 237/2/4
f 237/2/4 236/2/4 238/2/4
f 237/6/4 238/6/4 240/6/4
f 238/4/4 239/4/4 241/4/4
f 240/6/4 238/6/4 241/6/4
f 241/4/4 239/4/4 242/4/4
f 240/5/4 241/5/4 244/5/4
f 244/5/4 241/5/4 245/5/4
f 242/4/4 243/4/4 246/4/4
f 246/4/4 243/4/4 247/4/4
f 244/6/4 245/6/4 248/6/4
f 245/4/4 246/4/4 249/4/4
f 248/6/4 245/6/4 249/6/4
f 249/4/4 246/4/4 250/4/4
f 251/3/4 252/3/4 253/3/4
f 253/3/4 252/3/4 254/3/4
f 248/2/4 249/2/4 255/2/4
f 255/2/4 249/2/4 256/2/4
f 263/2/5 258/2/5 257/2/5
f 264/6/5 259/6/5 258/6/5
f 264/2/5 258/2/5 263/2/5
f 265/2/5 262/2/5 261/2/5
f 265/6/5 261/6/5 260/6/5
f 266/2/5 262/2/5 265/2/5
f 267/2/5 263/2/5 257/2/5
f 268/6/5 264/6/5 263/6/5
f 268/2/5 263/2/5 267/2/5
f 269/6/5 259/6/5 264/6/5
f 269/6/5 264/6/5 268/6/5
f 270/5/5 260/5/5 259/5/5
f 270/6/5 259/6/5 269/6/5
f 271/6/5 265/6/5 260/6/5
f 271/5/5 260/5/5 270/5/5
f 271/6/5 266/6/5 265/6/5
f 272/6/5 266/6/5 271/6/5
f 273/2/5 262/2/5 266/2/5
f 273/6/5 266/6/5 272/6/5
f 274/2/5 262/2/5 273/2/5
f 275/2/5 267/2/5 257/2/5
f 276/6/5 268/6/5 267/6/5
f 276/2/5 267/2/5 275/2/5
f 276/6/5 269/6/5 268/6/5
f 277/6/5 269/6/5 276/6/5
f 278/5/5 272/5/5 271/5/5
f 278/6/5 269/6/5 277/6/5
f 278/5/5 270/5/5 269/5/5
f 278/5/5 271/5/5 270/5/5
f 279/6/5 274/6/5 273/6/5
f 279/5/5 272/5/5 278/5/5
f 279/6/5 273/6/5 272/6/5
f 280/6/5 274/6/5 279/6/5
f 281/2/5 262/2/5 274/2/5
f 281/6/5 274/6/5 280/6/5
f 282/2/5 262/2/5 281/2/5
f 283/2/5 275/2/5 257/2/5
f 284/6/5 277/6/5 276/6/5
f 284/2/5 275/2/5 283/2/5
f 284/6/5 276/6/5 275/6/5
f 285/6/5 277/6/5 284/6/5
f 286/5/5 278/5/5 277/5/5
f 286/6/5 277/6/5 285/6/5
f 286/5/5 280/5/5 279/5/5
f 286/5/5 279/5/5 278/5/5
f 287/6/5 282/6/5 281/6/5
f 287/5/5 280/5/5 286/5/5
f 287/6/5 281/6/5 280/6/5
f 288/6/5 282/6/5 287/6/5
f 289/2/5 262/2/5 282/2/5
f 289/6/5 282/6/5 288/6/5
f 290/2/5 262/2/5 289/2/5
f 291/6/5 285/6/5 284/6/5
f 291/6/5 284/6/5 283/6/5
f 292/5/5 288/5/5 287/5/5
f 292/6/5 285/6/5 291/6/5
f 292/5/5 286/5/5 285/5/5
f 292/5/5 287/5/5 286/5/5
f 293/6/5 290/6/5 289/6/5
f 293/5/5 288/5/5 292/5/5
f 293/6/5 289/6/5 288/6/5
f 294/6/5 290/6/5 293/6/5
f 295/5/5 292/5/5 291/5/5
f 295/5/5 293/5/5 292/5/5
f 295/5/5 294/5/5 293/5/5
f 296/5/5 294/5/5 295/5/5
f 297/5/5 294/5/5 296/5/5
f 298/5/5 294/5/5 297/5/5
f 299/6/5 296/6/5 295/6/5
f 300/6/5 296/6/5 299/6/5
f 301/5/5 297/5/5 296/5/5
f 301/6/5 296/6/5 300/6/5
f 302/5/5 297/5/5 301/5/5
f 303/5/5 297/5/5 302/5/5
f 304/6/5 298/6/5 297/6/5
f 304/5/5 297/5/5 303/5/5
f 305/6/5 298/6/5 304/6/5
f 306/6/5 298/6/5 305/6/5
f 307/2/5 300/2/5 299/2/5
f 307/6/5 301/6/5 300/6/5
f 307/6/5 302/6/5 301/6/5
f 308/6/5 302/6/5 307/6/5
f 309/5/5 303/5/5 302/5/5
f 309/6/5 302/6/5 308/6/5
f 310/5/5 303/5/5 309/5/5
f 311/5/5 303/5/5 310/5/5
f 312/6/5 305/6/5 304/6/5
f 312/5/5 303/5/5 311/5/5
f 312/6/5 304/6/5 303/6/5
f 313/6/5 305/6/5 312/6/5
f 314/2/5 306/2/5 305/2/5
f 314/6/5 305/6/5 313/6/5
f 315/2/5 308/2/5 307/2/5
f 315/6/5 310/6/5 309/6/5
f 315/6/5 309/6/5 308/6/5
f 316/6/5 310/6/5 315/6/5
f 317/5/5 311/5/5 310/5/5
f 317/6/5 310/6/5 316/6/5
f 318/5/5 311/5/5 317/5/5
f 319/5/5 311/5/5 318/5/5
f 320/6/5 313/6/5 312/6/5
f 320/5/5 311/5/5 319/5/5
f 320/6/5 312/6/5 311/6/5
f 321/6/5 313/6/5 320/6/5
f 322/2/5 314/2/5 313/2/5
f 322/6/5 313/6/5 321/6/5
f 323/2/5 316/2/5 315/2/5
f 323/6/5 318/6/5 317/6/5
f 323/6/5 317/6/5 316/6/5
f 324/6/5 318/6/5 323/6/5
f 325/6/5 321/6/5 320/6/5
f 325/6/5 320/6/5 319/6/5
f 326/2/5 322/2/5 321/2/5
f 326/6/5 321/6/5 325/6/5
f 327/2/5 307/2/5 299/2/5
f 327/2/5 315/2/5 307/2/5
f 327/2/5 324/2/5 323/2/5
f 327/2/5 323/2/5 315/2/5
f 328/6/5 318/6/5 324/6/5
f 328/2/5 324/2/5 327/2/5
f 329/5/5 319/5/5 318/5/5
f 329/6/5 318/6/5 328/6/5
f 330/6/5 325/6/5 319/6/5
f 330/5/5 319/5/5 329/5/5
f 331/2/5 326/2/5 325/2/5
f 331/6/5 325/6/5 330/6/5
f 332/2/5 306/2/5 314/2/5
f 332/2/5 326/2/5 331/2/5
f 332/2/5 314/2/5 322/2/5
f 332/2/5 322/2/5 326/2/5
f 335/3/5 334/3/5 333/3/5
f 336/3/5 334/3/5 335/3/5
f 337/3/5 335/3/5 333/3/5
f 338/3/5 334/3/5 336/3/5
f 339/3/5 337/3/5 333/3/5
f 339/3/5 338/3/5 337/3/5
f 340/3/5 334/3/5 338/3/5
f 340/3/5 338/3/5 339/3/5
f 343/4/5 342/4/5 341/4/5
f 344/4/5 342/4/5 343/4/5
f 349/4/5 346/4/5 345/4/5
f 350/4/5 346/4/5 349/4/5
f 351/4/5 348/4/5 347/4/5
f 352/4/5 348/4/5 351/4/5
f 355/4/5 354/4/5 353/4/5
f 356/4/5 354/4/5 355/4/5
f 357/2/6 358/2/6 363/2/6
f 359/5/6 360/5/6 364/5/6
f 364/5/6 360/5/6 365/5/6
f 361/2/6 362/2/6 366/2/6
f 357/2/6 363/2/6 367/2/6
f 363/6/6 364/6/6 368/6/6
f 367/2/6 363/2/6 368/2/6
f 365/6/6 366/6/6 369/6/6
f 366/2/6 362/2/6 369/2/6
f 369/2/6 362/2/6 370/2/6
f 357/2/6 367/2/6 371/2/6
f 367/6/6 368/6/6 372/6/6
f 371/2/6 367/2/6 372/2/6
f 368/6/6 364/6/6 373/6/6
f 372/6/6 368/6/6 373/6/6
f 364/5/6 365/5/6 374/5/6
f 373/6/6 364/6/6 374/6/6
f 365/6/6 369/6/6 375/6/6
f 374/5/6 365/5/6 375/5/6
f 369/6/6 370/6/6 375/6/6
f 375/6/6 370/6/6 376/6/6
f 370/2/6 362/2/6 377/2/6
f 376/6/6 370/6/6 377/6/6
f 377/2/6 362/2/6 378/2/6
f 357/2/6 371/2/6 379/2/6
f 372/6/6 373/6/6 380/6/6
f 379/2/6 371/2/6 380/2/6
f 371/6/6 372/6/6 380/6/6
f 380/6/6 373/6/6 381/6/6
f 375/5/6 376/5/6 382/5/6
f 381/6/6 373/6/6 382/6/6
f 373/5/6 374/5/6 382/5/6
f 374/5/6 375/5/6 382/5/6
f 377/6/6 378/6/6 383/6/6
f 382/5/6 376/5/6 383/5/6
f 376/6/6 377/6/6 383/6/6
f 383/6/6 378/6/6 384/6/6
f 378/2/6 362/2/6 385/2/6
f 384/6/6 378/6/6 385/6/6
f 385/2/6 362/2/6 386/2/6
f 357/2/6 379/2/6 387/2/6
f 387/2/6 379/2/6 388/2/6
f 380/6/6 381/6/6 389/6/6
f 388/2/6 379/2/6 389/2/6
f 379/6/6 380/6/6 389/6/6
f 389/6/6 381/6/6 390/6/6
f 381/5/6 382/5/6 391/5/6
f 390/6/6 381/6/6 391/6/6
f 383/5/6 384/5/6 391/5/6
f 382/5/6 383/5/6 391/5/6
f 385/6/6 386/6/6 392/6/6
f 391/5/6 384/5/6 392/5/6
f 384/6/6 385/6/6 392/6/6
f 392/6/6 386/6/6 393/6/6
f 386/2/6 362/2/6 394/2/6
f 393/6/6 386/6/6 394/6/6
f 394/2/6 362/2/6 395/2/6
f 395/2/6 362/2/6 396/2/6
f 389/6/6 390/6/6 398/6/6
f 388/6/6 389/6/6 398/6/6
f 392/5/6 393/5/6 399/5/6
f 390/5/6 391/5/6 399/5/6
f 398/6/6 390/6/6 399/6/6
f 391/5/6 392/5/6 399/5/6
f 394/6/6 395/6/6 400/6/6
f 399/5/6 393/5/6 400/5/6
f 393/6/6 394/6/6 400/6/6
f 400/6/6 395/6/6 401/6/6
f 397/5/6 398/5/6 403/5/6
f 401/5/6 402/5/6 403/5/6
f 400/5/6 401/5/6 403/5/6
f 399/5/6 400/5/6 403/5/6
f 398/5/6 399/5/6 403/5/6
f 403/5/6 402/5/6 404/5/6
f 404/5/6 402/5/6 405/5/6
f 405/5/6 402/5/6 406/5/6
f 406/5/6 402/5/6 407/5/6
f 407/5/6 402/5/6 408/5/6
f 404/6/6 405/6/6 410/6/6
f 410/6/6 405/6/6 411/6/6
f 405/5/6 406/5/6 412/5/6
f 411/6/6 405/6/6 412/6/6
f 412/5/6 406/5/6 413/5/6
f 413/5/6 406/5/6 414/5/6
f 406/6/6 407/6/6 415/6/6
f 414/5/6 406/5/6 415/5/6
f 415/6/6 407/6/6 416/6/6
f 416/6/6 407/6/6 417/6/6
f 410/2/6 411/2/6 419/2/6
f 409/2/6 410/2/6 419/2/6
f 411/6/6 412/6/6 419/6/6
f 412/6/6 413/6/6 419/6/6
f 419/6/6 413/6/6 420/6/6
f 413/5/6 414/5/6 421/5/6
f 420/6/6 413/6/6 421/6/6
f 421/5/6 414/5/6 422/5/6
f 422/5/6 414/5/6 423/5/6
f 415/6/6 416/6/6 424/6/6
f 423/5/6 414/5/6 424/5/6
f 414/6/6 415/6/6 424/6/6
f 424/6/6 416/6/6 425/6/6
f 417/2/6 418/2/6 426/2/6
f 425/6/6 416/6/6 426/6/6
f 416/2/6 417/2/6 426/2/6
f 419/2/6 420/2/6 427/2/6
f 421/6/6 422/6/6 427/6/6
f 420/6/6 421/6/6 427/6/6
f 427/6/6 422/6/6 428/6/6
f 422/5/6 423/5/6 429/5/6
f 428/6/6 422/6/6 429/6/6
f 429/5/6 423/5/6 430/5/6
f 430/5/6 423/5/6 431/5/6
f 424/6/6 425/6/6 432/6/6
f 431/5/6 423/5/6 432/5/6
f 423/6/6 424/6/6 432/6/6
f 432/6/6 425/6/6 433/6/6
f 425/2/6 426/2/6 434/2/6
f 433/6/6 425/6/6 434/6/6
f 429/6/6 430/6/6 435/6/6
f 427/2/6 428/2/6 435/2/6
f 428/6/6 429/6/6 435/6/6
f 435/6/6 430/6/6 436/6/6
f 432/6/6 433/6/6 437/6/6
f 431/6/6 432/6/6 437/6/6
f 433/2/6 434/2/6 438/2/6
f 437/6/6 433/6/6 438/6/6
f 426/2/6 418/2/6 439/2/6
f 438/2/6 434/2/6 439/2/6
f 437/2/6 438/2/6 439/2/6
f 434/2/6 426/2/6 439/2/6
f 439/2/6 418/2/6 440/2/6
f 435/2/6 436/2/6 441/2/6
f 436/6/6 430/6/6 441/6/6
f 430/5/6 431/5/6 442/5/6
f 441/6/6 430/6/6 442/6/6
f 431/6/6 437/6/6 443/6/6
f 442/5/6 431/5/6 443/5/6
f 437/2/6 439/2/6 444/2/6
f 443/6/6 437/6/6 444/6/6
f 444/2/6 439/2/6 445/2/6
f 440/2/6 418/2/6 446/2/6
f 427/2/6 435/2/6 447/2/6
f 435/2/6 441/2/6 447/2/6
f 409/2/6 419/2/6 447/2/6
f 419/2/6 427/2/6 447/2/6
f 447/2/6 441/2/6 448/2/6
f 442/5/6 443/5/6 449/5/6
f 449/5/6 443/5/6 450/5/6
f 445/2/6 446/2/6 451/2/6
f 444/2/6 445/2/6 451/2/6
f 446/2/6 418/2/6 452/2/6
f 451/2/6 446/2/6 452/2/6
f 453/4/6 454/4/6 457/4/6
f 457/4/6 454/4/6 458/4/6
f 455/4/6 456/4/6 459/4/6
f 459/4/6 456/4/6 460/4/6
f 461/4/6 462/4/6 465/4/6
f 465/4/6 462/4/6 466/4/6
f 463/4/6 464/4/6 467/4/6
f 467/4/6 464/4/6 468/4/6
f 469/4/6 470/4/6 473/4/6
f 473/4/6 470/4/6 474/4/6
f 471/4/6 472/4/6 475/4/6
f 475/4/6 472/4/6 476/4/6
f 477/4/6 478/4/6 481/4/6
f 481/4/6 478/4/6 482/4/6
f 479/4/6 480/4/6 483/4/6
f 483/4/6 480/4/6 484/4/6
f 485/4/6 486/4/6 487/4/6
f 487/4/6 486/4/6 488/4/6
f 489/4/6 490/4/6 493/4/6
f 493/4/6 490/4/6 494/4/6
f 491/4/6 492/4/6 495/4/6
f 495/4/6 492/4/6 496/4/6
f 497/3/6 498/3/6 499/3/6
f 499/3/6 498/3/6 500/3/6
f 497/3/6 499/3/6 503/3/6
f 500/3/6 498/3/6 504/3/6
f 501/4/6 502/4/6 505/4/6
f 505/4/6 502/4/6 506/4/6
f 503/3/6 504/3/6 507/3/6
f 497/3/6 503/3/6 507/3/6
f 504/3/6 498/3/6 508/3/6
f 507/3/6 504/3/6 508/3/6
f 509/3/6 510/3/6 511/3/6
f 511/3/6 510/3/6 512/3/6
