# MagicaVoxel @ Ephtracy

# group
o 

# material
mtllib cargo_lvl2.mtl
usemtl palette

# normals
vn -1 0 0
vn 1 0 0
vn 0 0 1
vn 0 0 -1
vn 0 -1 0
vn 0 1 0

# texcoords
vt 0.208984 0.5
vt 0.794922 0.5
vt 0.970703 0.5
vt 0.974609 0.5
vt 0.978516 0.5
vt 0.982422 0.5
vt 0.986328 0.5

# verts
v -0.8 0 0.8
v -0.8 0 0.2
v -0.8 0 0.1
v -0.8 0 -0.1
v -0.8 0 -0.2
v -0.8 0 -0.8
v -0.8 0.1 0.8
v -0.8 0.1 0.2
v -0.8 0.1 0.1
v -0.8 0.1 -0.1
v -0.8 0.1 -0.2
v -0.8 0.1 -0.8
v -0.8 0.5 0.2
v -0.8 0.5 0.1
v -0.8 0.5 -0.1
v -0.8 0.5 -0.2
v -0.8 0.6 0.1
v -0.8 0.6 -0.1
v -0.8 0.6 -0.3
v -0.8 0.6 -0.8
v -0.8 0.7 -0.3
v -0.8 0.7 -0.8
v -0.7 0.1 0.7
v -0.7 0.1 0.4
v -0.7 0.1 -0.4
v -0.7 0.1 -0.7
v -0.7 0.4 0.7
v -0.7 0.4 0.4
v -0.7 0.4 -0.4
v -0.7 0.4 -0.7
v -0.7 0.7 -0.4
v -0.7 0.7 -0.7
v -0.7 1 -0.4
v -0.7 1 -0.7
v -0.2 0.1 0.7
v -0.2 0.1 0.4
v -0.2 0.1 -0.4
v -0.2 0.1 -0.7
v -0.2 0.4 0.7
v -0.2 0.4 0.4
v -0.2 0.4 -0.4
v -0.2 0.4 -0.7
v 0.3 0.1 0.7
v 0.3 0.1 0.4
v 0.3 0.1 -0.2
v 0.3 0.1 -0.3
v 0.3 0.1 -0.4
v 0.3 0.1 -0.7
v 0.3 0.4 0.7
v 0.3 0.4 0.4
v 0.3 0.4 -0.4
v 0.3 0.4 -0.7
v 0.3 0.6 -0.3
v 0.3 0.7 -0.3
v 0.3 0.8 -0.2
v 0.3 0.8 -0.3
v 0.5 0.1 -0.2
v 0.5 0.1 -0.3
v 0.5 0.2 -0.2
v 0.5 0.2 -0.3
v 0.5 0.3 -0.2
v 0.5 0.3 -0.3
v 0.5 0.4 -0.2
v 0.5 0.4 -0.3
v 0.5 0.5 -0.2
v 0.5 0.5 -0.3
v 0.5 0.6 -0.2
v 0.5 0.6 -0.3
v 0.5 0.7 -0.2
v 0.5 0.7 -0.3
v 0.5 0.8 -0.2
v 0.5 0.8 -0.3
v 0.7 0.1 0.2
v 0.7 0.1 0.1
v 0.7 0.1 -0.1
v 0.7 0.1 -0.2
v 0.7 0.5 0.2
v 0.7 0.5 0.1
v 0.7 0.5 -0.1
v 0.7 0.5 -0.2
v 0.7 0.6 0.1
v 0.7 0.6 -0.1
v 0.7 0.9 -0.3
v 0.7 0.9 -0.8
v 0.7 1 -0.3
v 0.7 1 -0.8
v 0.7 1.1 -0.3
v 0.7 1.1 -0.8
v 0.7 1.2 -0.3
v 0.7 1.2 -0.8
v -0.7 0.1 0.2
v -0.7 0.1 0.1
v -0.7 0.1 -0.1
v -0.7 0.1 -0.2
v -0.7 0.5 0.2
v -0.7 0.5 0.1
v -0.7 0.5 -0.1
v -0.7 0.5 -0.2
v -0.7 0.6 0.1
v -0.7 0.6 -0.1
v -0.4 0.1 0.7
v -0.4 0.1 0.4
v -0.4 0.1 -0.4
v -0.4 0.1 -0.7
v -0.4 0.4 0.7
v -0.4 0.4 0.4
v -0.4 0.4 -0.4
v -0.4 0.4 -0.7
v -0.4 0.7 -0.4
v -0.4 0.7 -0.7
v -0.4 1 -0.4
v -0.4 1 -0.7
v 0.1 0.1 0.7
v 0.1 0.1 0.4
v 0.1 0.1 -0.4
v 0.1 0.1 -0.7
v 0.1 0.4 0.7
v 0.1 0.4 0.4
v 0.1 0.4 -0.4
v 0.1 0.4 -0.7
v 0.4 0.1 -0.2
v 0.4 0.1 -0.3
v 0.4 0.2 -0.2
v 0.4 0.2 -0.3
v 0.4 0.3 -0.2
v 0.4 0.3 -0.3
v 0.4 0.4 -0.2
v 0.4 0.4 -0.3
v 0.4 0.5 -0.2
v 0.4 0.5 -0.3
v 0.4 0.6 -0.2
v 0.4 0.6 -0.3
v 0.4 0.7 -0.2
v 0.4 0.7 -0.3
v 0.4 0.8 -0.2
v 0.4 0.8 -0.3
v 0.6 0.1 0.7
v 0.6 0.1 0.4
v 0.6 0.1 -0.2
v 0.6 0.1 -0.3
v 0.6 0.1 -0.4
v 0.6 0.1 -0.7
v 0.6 0.4 0.7
v 0.6 0.4 0.4
v 0.6 0.4 -0.4
v 0.6 0.4 -0.7
v 0.6 0.6 -0.3
v 0.6 0.7 -0.3
v 0.6 0.8 -0.2
v 0.6 0.8 -0.3
v 0.8 0 0.8
v 0.8 0 0.2
v 0.8 0 0.1
v 0.8 0 -0.1
v 0.8 0 -0.2
v 0.8 0 -0.8
v 0.8 0.1 0.8
v 0.8 0.1 0.2
v 0.8 0.1 0.1
v 0.8 0.1 -0.1
v 0.8 0.1 -0.2
v 0.8 0.1 -0.8
v 0.8 0.5 0.2
v 0.8 0.5 0.1
v 0.8 0.5 -0.1
v 0.8 0.5 -0.2
v 0.8 0.6 0.1
v 0.8 0.6 -0.1
v 0.8 0.6 -0.3
v 0.8 0.6 -0.8
v 0.8 0.7 -0.3
v 0.8 0.7 -0.8
v 0.8 0.9 -0.3
v 0.8 0.9 -0.8
v 0.8 1 -0.3
v 0.8 1 -0.8
v 0.8 1.1 -0.3
v 0.8 1.1 -0.8
v 0.8 1.2 -0.3
v 0.8 1.2 -0.8
v -0.8 0 0.8
v -0.8 0.1 0.8
v 0.8 0 0.8
v 0.8 0.1 0.8
v -0.7 0.1 0.7
v -0.7 0.4 0.7
v -0.4 0.1 0.7
v -0.4 0.4 0.7
v -0.2 0.1 0.7
v -0.2 0.4 0.7
v 0.1 0.1 0.7
v 0.1 0.4 0.7
v 0.3 0.1 0.7
v 0.3 0.4 0.7
v 0.6 0.1 0.7
v 0.6 0.4 0.7
v -0.8 0.1 0.2
v -0.8 0.5 0.2
v -0.7 0.1 0.2
v -0.7 0.5 0.2
v 0.7 0.1 0.2
v 0.7 0.5 0.2
v 0.8 0.1 0.2
v 0.8 0.5 0.2
v -0.8 0.5 0.1
v -0.8 0.6 0.1
v -0.7 0.5 0.1
v -0.7 0.6 0.1
v 0.7 0.5 0.1
v 0.7 0.6 0.1
v 0.8 0.5 0.1
v 0.8 0.6 0.1
v -0.8 0.1 -0.1
v -0.8 0.5 -0.1
v -0.7 0.1 -0.1
v -0.7 0.5 -0.1
v 0.7 0.1 -0.1
v 0.7 0.5 -0.1
v 0.8 0.1 -0.1
v 0.8 0.5 -0.1
v 0.3 0.1 -0.2
v 0.3 0.8 -0.2
v 0.4 0.1 -0.2
v 0.4 0.2 -0.2
v 0.4 0.3 -0.2
v 0.4 0.4 -0.2
v 0.4 0.5 -0.2
v 0.4 0.6 -0.2
v 0.4 0.7 -0.2
v 0.4 0.8 -0.2
v 0.5 0.1 -0.2
v 0.5 0.2 -0.2
v 0.5 0.3 -0.2
v 0.5 0.4 -0.2
v 0.5 0.5 -0.2
v 0.5 0.6 -0.2
v 0.5 0.7 -0.2
v 0.5 0.8 -0.2
v 0.6 0.1 -0.2
v 0.6 0.8 -0.2
v -0.8 0.6 -0.3
v -0.8 0.7 -0.3
v 0.3 0.6 -0.3
v 0.3 0.7 -0.3
v 0.6 0.6 -0.3
v 0.6 0.7 -0.3
v 0.7 0.9 -0.3
v 0.7 1 -0.3
v 0.7 1.1 -0.3
v 0.7 1.2 -0.3
v 0.8 0.6 -0.3
v 0.8 0.7 -0.3
v 0.8 0.9 -0.3
v 0.8 1 -0.3
v 0.8 1.1 -0.3
v 0.8 1.2 -0.3
v -0.7 0.1 -0.4
v -0.7 0.4 -0.4
v -0.7 0.7 -0.4
v -0.7 1 -0.4
v -0.4 0.1 -0.4
v -0.4 0.4 -0.4
v -0.4 0.7 -0.4
v -0.4 1 -0.4
v -0.2 0.1 -0.4
v -0.2 0.4 -0.4
v 0.1 0.1 -0.4
v 0.1 0.4 -0.4
v 0.3 0.1 -0.4
v 0.3 0.4 -0.4
v 0.6 0.1 -0.4
v 0.6 0.4 -0.4
v -0.7 0.1 0.4
v -0.7 0.4 0.4
v -0.4 0.1 0.4
v -0.4 0.4 0.4
v -0.2 0.1 0.4
v -0.2 0.4 0.4
v 0.1 0.1 0.4
v 0.1 0.4 0.4
v 0.3 0.1 0.4
v 0.3 0.4 0.4
v 0.6 0.1 0.4
v 0.6 0.4 0.4
v -0.8 0.1 0.1
v -0.8 0.5 0.1
v -0.7 0.1 0.1
v -0.7 0.5 0.1
v 0.7 0.1 0.1
v 0.7 0.5 0.1
v 0.8 0.1 0.1
v 0.8 0.5 0.1
v -0.8 0.5 -0.1
v -0.8 0.6 -0.1
v -0.7 0.5 -0.1
v -0.7 0.6 -0.1
v 0.7 0.5 -0.1
v 0.7 0.6 -0.1
v 0.8 0.5 -0.1
v 0.8 0.6 -0.1
v -0.8 0.1 -0.2
v -0.8 0.5 -0.2
v -0.7 0.1 -0.2
v -0.7 0.5 -0.2
v 0.7 0.1 -0.2
v 0.7 0.5 -0.2
v 0.8 0.1 -0.2
v 0.8 0.5 -0.2
v 0.3 0.1 -0.3
v 0.3 0.6 -0.3
v 0.3 0.7 -0.3
v 0.3 0.8 -0.3
v 0.4 0.1 -0.3
v 0.4 0.2 -0.3
v 0.4 0.3 -0.3
v 0.4 0.4 -0.3
v 0.4 0.5 -0.3
v 0.4 0.6 -0.3
v 0.4 0.7 -0.3
v 0.4 0.8 -0.3
v 0.5 0.1 -0.3
v 0.5 0.2 -0.3
v 0.5 0.3 -0.3
v 0.5 0.4 -0.3
v 0.5 0.5 -0.3
v 0.5 0.6 -0.3
v 0.5 0.7 -0.3
v 0.5 0.8 -0.3
v 0.6 0.1 -0.3
v 0.6 0.6 -0.3
v 0.6 0.7 -0.3
v 0.6 0.8 -0.3
v -0.7 0.1 -0.7
v -0.7 0.4 -0.7
v -0.7 0.7 -0.7
v -0.7 1 -0.7
v -0.4 0.1 -0.7
v -0.4 0.4 -0.7
v -0.4 0.7 -0.7
v -0.4 1 -0.7
v -0.2 0.1 -0.7
v -0.2 0.4 -0.7
v 0.1 0.1 -0.7
v 0.1 0.4 -0.7
v 0.3 0.1 -0.7
v 0.3 0.4 -0.7
v 0.6 0.1 -0.7
v 0.6 0.4 -0.7
v -0.8 0 -0.8
v -0.8 0.1 -0.8
v -0.8 0.6 -0.8
v -0.8 0.7 -0.8
v 0.7 0.9 -0.8
v 0.7 1 -0.8
v 0.7 1.1 -0.8
v 0.7 1.2 -0.8
v 0.8 0 -0.8
v 0.8 0.1 -0.8
v 0.8 0.6 -0.8
v 0.8 0.7 -0.8
v 0.8 0.9 -0.8
v 0.8 1 -0.8
v 0.8 1.1 -0.8
v 0.8 1.2 -0.8
v -0.8 0 0.8
v 0.8 0 0.8
v -0.8 0 0.2
v -0.6 0 0.2
v -0.5 0 0.2
v -0.4 0 0.2
v -0.3 0 0.2
v -0.2 0 0.2
v -0.1 0 0.2
v 0 0 0.2
v 0.1 0 0.2
v 0.2 0 0.2
v 0.3 0 0.2
v 0.4 0 0.2
v 0.5 0 0.2
v 0.6 0 0.2
v 0.7 0 0.2
v 0.8 0 0.2
v -0.8 0 0.1
v -0.6 0 0.1
v -0.5 0 0.1
v -0.4 0 0.1
v -0.3 0 0.1
v -0.2 0 0.1
v -0.1 0 0.1
v 0 0 0.1
v 0.1 0 0.1
v 0.2 0 0.1
v 0.3 0 0.1
v 0.4 0 0.1
v 0.5 0 0.1
v 0.6 0 0.1
v 0.7 0 0.1
v 0.8 0 0.1
v -0.8 0 -0.1
v -0.6 0 -0.1
v -0.5 0 -0.1
v -0.4 0 -0.1
v -0.3 0 -0.1
v -0.2 0 -0.1
v -0.1 0 -0.1
v 0 0 -0.1
v 0.1 0 -0.1
v 0.2 0 -0.1
v 0.3 0 -0.1
v 0.4 0 -0.1
v 0.5 0 -0.1
v 0.6 0 -0.1
v 0.7 0 -0.1
v 0.8 0 -0.1
v -0.8 0 -0.2
v -0.6 0 -0.2
v -0.5 0 -0.2
v -0.4 0 -0.2
v -0.3 0 -0.2
v -0.2 0 -0.2
v -0.1 0 -0.2
v 0 0 -0.2
v 0.1 0 -0.2
v 0.2 0 -0.2
v 0.3 0 -0.2
v 0.4 0 -0.2
v 0.5 0 -0.2
v 0.6 0 -0.2
v 0.7 0 -0.2
v 0.8 0 -0.2
v -0.8 0 -0.8
v 0.8 0 -0.8
v 0.4 0.2 -0.2
v 0.5 0.2 -0.2
v 0.4 0.2 -0.3
v 0.5 0.2 -0.3
v 0.4 0.4 -0.2
v 0.5 0.4 -0.2
v 0.4 0.4 -0.3
v 0.5 0.4 -0.3
v -0.8 0.5 0.1
v -0.7 0.5 0.1
v 0.7 0.5 0.1
v 0.8 0.5 0.1
v -0.8 0.5 -0.1
v -0.7 0.5 -0.1
v 0.7 0.5 -0.1
v 0.8 0.5 -0.1
v 0.4 0.6 -0.2
v 0.5 0.6 -0.2
v -0.8 0.6 -0.3
v 0.3 0.6 -0.3
v 0.4 0.6 -0.3
v 0.5 0.6 -0.3
v 0.6 0.6 -0.3
v 0.8 0.6 -0.3
v -0.8 0.6 -0.8
v 0.8 0.6 -0.8
v 0.7 0.9 -0.3
v 0.8 0.9 -0.3
v 0.7 0.9 -0.8
v 0.8 0.9 -0.8
v 0.7 1.1 -0.3
v 0.8 1.1 -0.3
v 0.7 1.1 -0.8
v 0.8 1.1 -0.8
v -0.8 0.1 0.8
v 0.8 0.1 0.8
v -0.7 0.1 0.7
v -0.4 0.1 0.7
v -0.2 0.1 0.7
v 0.1 0.1 0.7
v 0.3 0.1 0.7
v 0.6 0.1 0.7
v -0.7 0.1 0.4
v -0.4 0.1 0.4
v -0.2 0.1 0.4
v 0.1 0.1 0.4
v 0.3 0.1 0.4
v 0.6 0.1 0.4
v -0.8 0.1 0.2
v -0.7 0.1 0.2
v -0.6 0.1 0.2
v -0.5 0.1 0.2
v -0.4 0.1 0.2
v -0.3 0.1 0.2
v -0.2 0.1 0.2
v -0.1 0.1 0.2
v 0 0.1 0.2
v 0.1 0.1 0.2
v 0.2 0.1 0.2
v 0.3 0.1 0.2
v 0.4 0.1 0.2
v 0.5 0.1 0.2
v 0.6 0.1 0.2
v 0.7 0.1 0.2
v 0.8 0.1 0.2
v -0.8 0.1 0.1
v -0.7 0.1 0.1
v -0.6 0.1 0.1
v -0.5 0.1 0.1
v -0.4 0.1 0.1
v -0.3 0.1 0.1
v -0.2 0.1 0.1
v -0.1 0.1 0.1
v 0 0.1 0.1
v 0.1 0.1 0.1
v 0.2 0.1 0.1
v 0.3 0.1 0.1
v 0.4 0.1 0.1
v 0.5 0.1 0.1
v 0.6 0.1 0.1
v 0.7 0.1 0.1
v 0.8 0.1 0.1
v -0.8 0.1 -0.1
v -0.7 0.1 -0.1
v -0.6 0.1 -0.1
v -0.5 0.1 -0.1
v -0.4 0.1 -0.1
v -0.3 0.1 -0.1
v -0.2 0.1 -0.1
v -0.1 0.1 -0.1
v 0 0.1 -0.1
v 0.1 0.1 -0.1
v 0.2 0.1 -0.1
v 0.3 0.1 -0.1
v 0.4 0.1 -0.1
v 0.5 0.1 -0.1
v 0.6 0.1 -0.1
v 0.7 0.1 -0.1
v 0.8 0.1 -0.1
v -0.8 0.1 -0.2
v -0.7 0.1 -0.2
v -0.6 0.1 -0.2
v -0.5 0.1 -0.2
v -0.4 0.1 -0.2
v -0.3 0.1 -0.2
v -0.2 0.1 -0.2
v -0.1 0.1 -0.2
v 0 0.1 -0.2
v 0.1 0.1 -0.2
v 0.2 0.1 -0.2
v 0.3 0.1 -0.2
v 0.4 0.1 -0.2
v 0.5 0.1 -0.2
v 0.6 0.1 -0.2
v 0.7 0.1 -0.2
v 0.8 0.1 -0.2
v 0.3 0.1 -0.3
v 0.4 0.1 -0.3
v 0.5 0.1 -0.3
v 0.6 0.1 -0.3
v -0.7 0.1 -0.4
v -0.4 0.1 -0.4
v -0.2 0.1 -0.4
v 0.1 0.1 -0.4
v 0.3 0.1 -0.4
v 0.6 0.1 -0.4
v -0.7 0.1 -0.7
v -0.4 0.1 -0.7
v -0.2 0.1 -0.7
v 0.1 0.1 -0.7
v 0.3 0.1 -0.7
v 0.6 0.1 -0.7
v -0.8 0.1 -0.8
v 0.8 0.1 -0.8
v 0.4 0.3 -0.2
v 0.5 0.3 -0.2
v 0.4 0.3 -0.3
v 0.5 0.3 -0.3
v -0.7 0.4 0.7
v -0.4 0.4 0.7
v -0.2 0.4 0.7
v 0.1 0.4 0.7
v 0.3 0.4 0.7
v 0.6 0.4 0.7
v -0.7 0.4 0.4
v -0.4 0.4 0.4
v -0.2 0.4 0.4
v 0.1 0.4 0.4
v 0.3 0.4 0.4
v 0.6 0.4 0.4
v -0.7 0.4 -0.4
v -0.4 0.4 -0.4
v -0.2 0.4 -0.4
v 0.1 0.4 -0.4
v 0.3 0.4 -0.4
v 0.6 0.4 -0.4
v -0.7 0.4 -0.7
v -0.4 0.4 -0.7
v -0.2 0.4 -0.7
v 0.1 0.4 -0.7
v 0.3 0.4 -0.7
v 0.6 0.4 -0.7
v -0.8 0.5 0.2
v -0.7 0.5 0.2
v 0.7 0.5 0.2
v 0.8 0.5 0.2
v -0.8 0.5 0.1
v -0.7 0.5 0.1
v 0.7 0.5 0.1
v 0.8 0.5 0.1
v -0.8 0.5 -0.1
v -0.7 0.5 -0.1
v 0.7 0.5 -0.1
v 0.8 0.5 -0.1
v -0.8 0.5 -0.2
v -0.7 0.5 -0.2
v 0.4 0.5 -0.2
v 0.5 0.5 -0.2
v 0.7 0.5 -0.2
v 0.8 0.5 -0.2
v 0.4 0.5 -0.3
v 0.5 0.5 -0.3
v -0.8 0.6 0.1
v -0.7 0.6 0.1
v 0.7 0.6 0.1
v 0.8 0.6 0.1
v -0.8 0.6 -0.1
v -0.7 0.6 -0.1
v 0.7 0.6 -0.1
v 0.8 0.6 -0.1
v 0.4 0.7 -0.2
v 0.5 0.7 -0.2
v -0.8 0.7 -0.3
v 0.3 0.7 -0.3
v 0.4 0.7 -0.3
v 0.5 0.7 -0.3
v 0.6 0.7 -0.3
v 0.8 0.7 -0.3
v -0.7 0.7 -0.4
v -0.4 0.7 -0.4
v -0.7 0.7 -0.7
v -0.4 0.7 -0.7
v -0.8 0.7 -0.8
v 0.8 0.7 -0.8
v 0.3 0.8 -0.2
v 0.4 0.8 -0.2
v 0.5 0.8 -0.2
v 0.6 0.8 -0.2
v 0.3 0.8 -0.3
v 0.4 0.8 -0.3
v 0.5 0.8 -0.3
v 0.6 0.8 -0.3
v 0.7 1 -0.3
v 0.8 1 -0.3
v -0.7 1 -0.4
v -0.4 1 -0.4
v -0.7 1 -0.7
v -0.4 1 -0.7
v 0.7 1 -0.8
v 0.8 1 -0.8
v 0.7 1.2 -0.3
v 0.8 1.2 -0.3
v 0.7 1.2 -0.8
v 0.8 1.2 -0.8

# faces
f 7/6/1 2/6/1 1/6/1
f 8/7/1 3/7/1 2/7/1
f 8/6/1 2/6/1 7/6/1
f 9/5/1 4/5/1 3/5/1
f 9/7/1 3/7/1 8/7/1
f 10/7/1 5/7/1 4/7/1
f 10/5/1 4/5/1 9/5/1
f 11/6/1 6/6/1 5/6/1
f 11/7/1 5/7/1 10/7/1
f 12/6/1 6/6/1 11/6/1
f 13/3/1 9/3/1 8/3/1
f 14/3/1 9/3/1 13/3/1
f 15/3/1 11/3/1 10/3/1
f 16/3/1 11/3/1 15/3/1
f 17/3/1 15/3/1 14/3/1
f 18/3/1 15/3/1 17/3/1
f 21/5/1 20/5/1 19/5/1
f 22/5/1 20/5/1 21/5/1
f 27/2/1 24/2/1 23/2/1
f 28/2/1 24/2/1 27/2/1
f 29/2/1 26/2/1 25/2/1
f 30/2/1 26/2/1 29/2/1
f 33/2/1 32/2/1 31/2/1
f 34/2/1 32/2/1 33/2/1
f 39/2/1 36/2/1 35/2/1
f 40/2/1 36/2/1 39/2/1
f 41/2/1 38/2/1 37/2/1
f 42/2/1 38/2/1 41/2/1
f 49/2/1 44/2/1 43/2/1
f 50/2/1 44/2/1 49/2/1
f 51/2/1 48/2/1 47/2/1
f 52/2/1 48/2/1 51/2/1
f 53/4/1 46/4/1 45/4/1
f 54/4/1 53/4/1 45/4/1
f 55/4/1 54/4/1 45/4/1
f 56/4/1 54/4/1 55/4/1
f 59/4/1 58/4/1 57/4/1
f 60/4/1 58/4/1 59/4/1
f 63/4/1 62/4/1 61/4/1
f 64/4/1 62/4/1 63/4/1
f 67/4/1 66/4/1 65/4/1
f 68/4/1 66/4/1 67/4/1
f 71/4/1 70/4/1 69/4/1
f 72/4/1 70/4/1 71/4/1
f 77/3/1 74/3/1 73/3/1
f 78/3/1 74/3/1 77/3/1
f 79/3/1 76/3/1 75/3/1
f 80/3/1 76/3/1 79/3/1
f 81/3/1 79/3/1 78/3/1
f 82/3/1 79/3/1 81/3/1
f 85/4/1 84/4/1 83/4/1
f 86/4/1 84/4/1 85/4/1
f 89/4/1 88/4/1 87/4/1
f 90/4/1 88/4/1 89/4/1
f 91/3/2 92/3/2 95/3/2
f 95/3/2 92/3/2 96/3/2
f 93/3/2 94/3/2 97/3/2
f 97/3/2 94/3/2 98/3/2
f 96/3/2 97/3/2 99/3/2
f 99/3/2 97/3/2 100/3/2
f 101/2/2 102/2/2 105/2/2
f 105/2/2 102/2/2 106/2/2
f 103/2/2 104/2/2 107/2/2
f 107/2/2 104/2/2 108/2/2
f 109/2/2 110/2/2 111/2/2
f 111/2/2 110/2/2 112/2/2
f 113/2/2 114/2/2 117/2/2
f 117/2/2 114/2/2 118/2/2
f 115/2/2 116/2/2 119/2/2
f 119/2/2 116/2/2 120/2/2
f 121/4/2 122/4/2 123/4/2
f 123/4/2 122/4/2 124/4/2
f 125/4/2 126/4/2 127/4/2
f 127/4/2 126/4/2 128/4/2
f 129/4/2 130/4/2 131/4/2
f 131/4/2 130/4/2 132/4/2
f 133/4/2 134/4/2 135/4/2
f 135/4/2 134/4/2 136/4/2
f 137/2/2 138/2/2 143/2/2
f 143/2/2 138/2/2 144/2/2
f 141/2/2 142/2/2 145/2/2
f 145/2/2 142/2/2 146/2/2
f 139/4/2 140/4/2 147/4/2
f 139/4/2 147/4/2 148/4/2
f 139/4/2 148/4/2 149/4/2
f 149/4/2 148/4/2 150/4/2
f 151/6/2 152/6/2 157/6/2
f 152/7/2 153/7/2 158/7/2
f 157/6/2 152/6/2 158/6/2
f 153/5/2 154/5/2 159/5/2
f 158/7/2 153/7/2 159/7/2
f 154/7/2 155/7/2 160/7/2
f 159/5/2 154/5/2 160/5/2
f 155/6/2 156/6/2 161/6/2
f 160/7/2 155/7/2 161/7/2
f 161/6/2 156/6/2 162/6/2
f 158/3/2 159/3/2 163/3/2
f 163/3/2 159/3/2 164/3/2
f 160/3/2 161/3/2 165/3/2
f 165/3/2 161/3/2 166/3/2
f 164/3/2 165/3/2 167/3/2
f 167/3/2 165/3/2 168/3/2
f 169/5/2 170/5/2 171/5/2
f 171/5/2 170/5/2 172/5/2
f 173/4/2 174/4/2 175/4/2
f 175/4/2 174/4/2 176/4/2
f 177/4/2 178/4/2 179/4/2
f 179/4/2 178/4/2 180/4/2
f 183/6/3 182/6/3 181/6/3
f 184/6/3 182/6/3 183/6/3
f 187/2/3 186/2/3 185/2/3
f 188/2/3 186/2/3 187/2/3
f 191/2/3 190/2/3 189/2/3
f 192/2/3 190/2/3 191/2/3
f 195/2/3 194/2/3 193/2/3
f 196/2/3 194/2/3 195/2/3
f 199/3/3 198/3/3 197/3/3
f 200/3/3 198/3/3 199/3/3
f 203/3/3 202/3/3 201/3/3
f 204/3/3 202/3/3 203/3/3
f 207/3/3 206/3/3 205/3/3
f 208/3/3 206/3/3 207/3/3
f 211/3/3 210/3/3 209/3/3
f 212/3/3 210/3/3 211/3/3
f 215/3/3 214/3/3 213/3/3
f 216/3/3 214/3/3 215/3/3
f 219/3/3 218/3/3 217/3/3
f 220/3/3 218/3/3 219/3/3
f 223/4/3 222/4/3 221/4/3
f 224/4/3 222/4/3 223/4/3
f 225/4/3 222/4/3 224/4/3
f 226/4/3 222/4/3 225/4/3
f 227/4/3 222/4/3 226/4/3
f 228/4/3 222/4/3 227/4/3
f 229/4/3 222/4/3 228/4/3
f 230/4/3 222/4/3 229/4/3
f 232/4/3 225/4/3 224/4/3
f 233/4/3 225/4/3 232/4/3
f 234/4/3 227/4/3 226/4/3
f 235/4/3 227/4/3 234/4/3
f 236/4/3 229/4/3 228/4/3
f 237/4/3 229/4/3 236/4/3
f 239/4/3 233/4/3 232/4/3
f 239/4/3 238/4/3 237/4/3
f 239/4/3 237/4/3 236/4/3
f 239/4/3 236/4/3 235/4/3
f 239/4/3 235/4/3 234/4/3
f 239/4/3 234/4/3 233/4/3
f 239/4/3 232/4/3 231/4/3
f 240/4/3 238/4/3 239/4/3
f 243/5/3 242/5/3 241/5/3
f 244/5/3 242/5/3 243/5/3
f 251/5/3 246/5/3 245/5/3
f 252/5/3 246/5/3 251/5/3
f 253/4/3 248/4/3 247/4/3
f 254/4/3 248/4/3 253/4/3
f 255/4/3 250/4/3 249/4/3
f 256/4/3 250/4/3 255/4/3
f 261/2/3 258/2/3 257/2/3
f 262/2/3 258/2/3 261/2/3
f 263/2/3 260/2/3 259/2/3
f 264/2/3 260/2/3 263/2/3
f 267/2/3 266/2/3 265/2/3
f 268/2/3 266/2/3 267/2/3
f 271/2/3 270/2/3 269/2/3
f 272/2/3 270/2/3 271/2/3
f 273/2/4 274/2/4 275/2/4
f 275/2/4 274/2/4 276/2/4
f 277/2/4 278/2/4 279/2/4
f 279/2/4 278/2/4 280/2/4
f 281/2/4 282/2/4 283/2/4
f 283/2/4 282/2/4 284/2/4
f 285/3/4 286/3/4 287/3/4
f 287/3/4 286/3/4 288/3/4
f 289/3/4 290/3/4 291/3/4
f 291/3/4 290/3/4 292/3/4
f 293/3/4 294/3/4 295/3/4
f 295/3/4 294/3/4 296/3/4
f 297/3/4 298/3/4 299/3/4
f 299/3/4 298/3/4 300/3/4
f 301/3/4 302/3/4 303/3/4
f 303/3/4 302/3/4 304/3/4
f 305/3/4 306/3/4 307/3/4
f 307/3/4 306/3/4 308/3/4
f 309/4/4 310/4/4 313/4/4
f 313/4/4 310/4/4 314/4/4
f 314/4/4 310/4/4 315/4/4
f 315/4/4 310/4/4 316/4/4
f 316/4/4 310/4/4 317/4/4
f 317/4/4 310/4/4 318/4/4
f 311/4/4 312/4/4 319/4/4
f 319/4/4 312/4/4 320/4/4
f 314/4/4 315/4/4 322/4/4
f 322/4/4 315/4/4 323/4/4
f 316/4/4 317/4/4 324/4/4
f 324/4/4 317/4/4 325/4/4
f 322/4/4 323/4/4 329/4/4
f 321/4/4 322/4/4 329/4/4
f 325/4/4 326/4/4 329/4/4
f 324/4/4 325/4/4 329/4/4
f 323/4/4 324/4/4 329/4/4
f 329/4/4 326/4/4 330/4/4
f 327/4/4 328/4/4 331/4/4
f 331/4/4 328/4/4 332/4/4
f 333/2/4 334/2/4 337/2/4
f 337/2/4 334/2/4 338/2/4
f 335/2/4 336/2/4 339/2/4
f 339/2/4 336/2/4 340/2/4
f 341/2/4 342/2/4 343/2/4
f 343/2/4 342/2/4 344/2/4
f 345/2/4 346/2/4 347/2/4
f 347/2/4 346/2/4 348/2/4
f 349/6/4 350/6/4 357/6/4
f 357/6/4 350/6/4 358/6/4
f 351/5/4 352/5/4 359/5/4
f 359/5/4 352/5/4 360/5/4
f 353/4/4 354/4/4 361/4/4
f 361/4/4 354/4/4 362/4/4
f 355/4/4 356/4/4 363/4/4
f 363/4/4 356/4/4 364/4/4
f 367/6/5 366/6/5 365/6/5
f 368/6/5 366/6/5 367/6/5
f 369/6/5 366/6/5 368/6/5
f 370/6/5 366/6/5 369/6/5
f 371/6/5 366/6/5 370/6/5
f 372/6/5 366/6/5 371/6/5
f 373/6/5 366/6/5 372/6/5
f 374/6/5 366/6/5 373/6/5
f 375/6/5 366/6/5 374/6/5
f 376/6/5 366/6/5 375/6/5
f 377/6/5 366/6/5 376/6/5
f 378/6/5 366/6/5 377/6/5
f 379/6/5 366/6/5 378/6/5
f 380/6/5 366/6/5 379/6/5
f 381/6/5 366/6/5 380/6/5
f 382/6/5 366/6/5 381/6/5
f 383/7/5 368/7/5 367/7/5
f 384/1/5 369/1/5 368/1/5
f 384/7/5 368/7/5 383/7/5
f 385/7/5 370/7/5 369/7/5
f 385/1/5 369/1/5 384/1/5
f 386/1/5 371/1/5 370/1/5
f 386/7/5 370/7/5 385/7/5
f 387/7/5 372/7/5 371/7/5
f 387/1/5 371/1/5 386/1/5
f 388/1/5 373/1/5 372/1/5
f 388/7/5 372/7/5 387/7/5
f 389/7/5 374/7/5 373/7/5
f 389/1/5 373/1/5 388/1/5
f 390/1/5 375/1/5 374/1/5
f 390/7/5 374/7/5 389/7/5
f 391/7/5 376/7/5 375/7/5
f 391/1/5 375/1/5 390/1/5
f 392/1/5 377/1/5 376/1/5
f 392/7/5 376/7/5 391/7/5
f 393/7/5 378/7/5 377/7/5
f 393/1/5 377/1/5 392/1/5
f 394/1/5 379/1/5 378/1/5
f 394/7/5 378/7/5 393/7/5
f 395/7/5 380/7/5 379/7/5
f 395/1/5 379/1/5 394/1/5
f 396/1/5 381/1/5 380/1/5
f 396/7/5 380/7/5 395/7/5
f 397/7/5 382/7/5 381/7/5
f 397/1/5 381/1/5 396/1/5
f 398/7/5 382/7/5 397/7/5
f 399/5/5 384/5/5 383/5/5
f 399/5/5 385/5/5 384/5/5
f 399/5/5 398/5/5 397/5/5
f 399/5/5 397/5/5 396/5/5
f 399/5/5 396/5/5 395/5/5
f 399/5/5 395/5/5 394/5/5
f 399/5/5 394/5/5 393/5/5
f 399/5/5 393/5/5 392/5/5
f 399/5/5 392/5/5 391/5/5
f 399/5/5 391/5/5 390/5/5
f 399/5/5 390/5/5 389/5/5
f 399/5/5 389/5/5 388/5/5
f 399/5/5 388/5/5 387/5/5
f 399/5/5 387/5/5 386/5/5
f 399/5/5 386/5/5 385/5/5
f 400/5/5 398/5/5 399/5/5
f 401/5/5 398/5/5 400/5/5
f 402/5/5 398/5/5 401/5/5
f 403/5/5 398/5/5 402/5/5
f 404/5/5 398/5/5 403/5/5
f 405/5/5 398/5/5 404/5/5
f 406/5/5 398/5/5 405/5/5
f 407/5/5 398/5/5 406/5/5
f 408/5/5 398/5/5 407/5/5
f 409/5/5 398/5/5 408/5/5
f 410/5/5 398/5/5 409/5/5
f 411/5/5 398/5/5 410/5/5
f 412/5/5 398/5/5 411/5/5
f 413/5/5 398/5/5 412/5/5
f 414/5/5 398/5/5 413/5/5
f 415/7/5 400/7/5 399/7/5
f 416/1/5 401/1/5 400/1/5
f 416/7/5 400/7/5 415/7/5
f 417/7/5 402/7/5 401/7/5
f 417/1/5 401/1/5 416/1/5
f 418/1/5 403/1/5 402/1/5
f 418/7/5 402/7/5 417/7/5
f 419/7/5 404/7/5 403/7/5
f 419/1/5 403/1/5 418/1/5
f 420/1/5 405/1/5 404/1/5
f 420/7/5 404/7/5 419/7/5
f 421/7/5 406/7/5 405/7/5
f 421/1/5 405/1/5 420/1/5
f 422/1/5 407/1/5 406/1/5
f 422/7/5 406/7/5 421/7/5
f 423/7/5 408/7/5 407/7/5
f 423/1/5 407/1/5 422/1/5
f 424/1/5 409/1/5 408/1/5
f 424/7/5 408/7/5 423/7/5
f 425/7/5 410/7/5 409/7/5
f 425/1/5 409/1/5 424/1/5
f 426/1/5 411/1/5 410/1/5
f 426/7/5 410/7/5 425/7/5
f 427/7/5 412/7/5 411/7/5
f 427/1/5 411/1/5 426/1/5
f 428/1/5 413/1/5 412/1/5
f 428/7/5 412/7/5 427/7/5
f 429/7/5 414/7/5 413/7/5
f 429/1/5 413/1/5 428/1/5
f 430/7/5 414/7/5 429/7/5
f 431/6/5 416/6/5 415/6/5
f 431/6/5 417/6/5 416/6/5
f 431/6/5 430/6/5 429/6/5
f 431/6/5 429/6/5 428/6/5
f 431/6/5 428/6/5 427/6/5
f 431/6/5 427/6/5 426/6/5
f 431/6/5 426/6/5 425/6/5
f 431/6/5 425/6/5 424/6/5
f 431/6/5 424/6/5 423/6/5
f 431/6/5 423/6/5 422/6/5
f 431/6/5 422/6/5 421/6/5
f 431/6/5 421/6/5 420/6/5
f 431/6/5 420/6/5 419/6/5
f 431/6/5 419/6/5 418/6/5
f 431/6/5 418/6/5 417/6/5
f 432/6/5 430/6/5 431/6/5
f 435/4/5 434/4/5 433/4/5
f 436/4/5 434/4/5 435/4/5
f 439/4/5 438/4/5 437/4/5
f 440/4/5 438/4/5 439/4/5
f 445/3/5 442/3/5 441/3/5
f 446/3/5 442/3/5 445/3/5
f 447/3/5 444/3/5 443/3/5
f 448/3/5 444/3/5 447/3/5
f 453/4/5 450/4/5 449/4/5
f 454/4/5 450/4/5 453/4/5
f 457/5/5 452/5/5 451/5/5
f 457/5/5 456/5/5 455/5/5
f 457/5/5 455/5/5 454/5/5
f 457/5/5 454/5/5 453/5/5
f 457/5/5 453/5/5 452/5/5
f 458/5/5 456/5/5 457/5/5
f 461/4/5 460/4/5 459/4/5
f 462/4/5 460/4/5 461/4/5
f 465/4/5 464/4/5 463/4/5
f 466/4/5 464/4/5 465/4/5
f 467/6/6 468/6/6 469/6/6
f 469/6/6 468/6/6 470/6/6
f 470/6/6 468/6/6 471/6/6
f 471/6/6 468/6/6 472/6/6
f 472/6/6 468/6/6 473/6/6
f 473/6/6 468/6/6 474/6/6
f 467/6/6 469/6/6 475/6/6
f 470/6/6 471/6/6 476/6/6
f 476/6/6 471/6/6 477/6/6
f 472/6/6 473/6/6 478/6/6
f 478/6/6 473/6/6 479/6/6
f 474/6/6 468/6/6 480/6/6
f 478/6/6 479/6/6 481/6/6
f 479/6/6 480/6/6 481/6/6
f 476/6/6 477/6/6 481/6/6
f 467/6/6 475/6/6 481/6/6
f 477/6/6 478/6/6 481/6/6
f 475/6/6 476/6/6 481/6/6
f 481/6/6 480/6/6 482/6/6
f 482/6/6 480/6/6 483/6/6
f 483/6/6 480/6/6 484/6/6
f 484/6/6 480/6/6 485/6/6
f 485/6/6 480/6/6 486/6/6
f 486/6/6 480/6/6 487/6/6
f 487/6/6 480/6/6 488/6/6
f 488/6/6 480/6/6 489/6/6
f 489/6/6 480/6/6 490/6/6
f 490/6/6 480/6/6 491/6/6
f 491/6/6 480/6/6 492/6/6
f 492/6/6 480/6/6 493/6/6
f 493/6/6 480/6/6 494/6/6
f 480/6/6 468/6/6 495/6/6
f 494/6/6 480/6/6 495/6/6
f 495/6/6 468/6/6 496/6/6
f 496/6/6 468/6/6 497/6/6
f 482/7/6 483/7/6 499/7/6
f 483/1/6 484/1/6 500/1/6
f 499/7/6 483/7/6 500/7/6
f 484/7/6 485/7/6 501/7/6
f 500/1/6 484/1/6 501/1/6
f 485/1/6 486/1/6 502/1/6
f 501/7/6 485/7/6 502/7/6
f 486/7/6 487/7/6 503/7/6
f 502/1/6 486/1/6 503/1/6
f 487/1/6 488/1/6 504/1/6
f 503/7/6 487/7/6 504/7/6
f 488/7/6 489/7/6 505/7/6
f 504/1/6 488/1/6 505/1/6
f 489/1/6 490/1/6 506/1/6
f 505/7/6 489/7/6 506/7/6
f 490/7/6 491/7/6 507/7/6
f 506/1/6 490/1/6 507/1/6
f 491/1/6 492/1/6 508/1/6
f 507/7/6 491/7/6 508/7/6
f 492/7/6 493/7/6 509/7/6
f 508/1/6 492/1/6 509/1/6
f 493/1/6 494/1/6 510/1/6
f 509/7/6 493/7/6 510/7/6
f 494/7/6 495/7/6 511/7/6
f 510/1/6 494/1/6 511/1/6
f 495/1/6 496/1/6 512/1/6
f 511/7/6 495/7/6 512/7/6
f 512/1/6 496/1/6 513/1/6
f 508/5/6 509/5/6 515/5/6
f 513/5/6 514/5/6 515/5/6
f 512/5/6 513/5/6 515/5/6
f 511/5/6 512/5/6 515/5/6
f 510/5/6 511/5/6 515/5/6
f 509/5/6 510/5/6 515/5/6
f 507/5/6 508/5/6 515/5/6
f 506/5/6 507/5/6 515/5/6
f 505/5/6 506/5/6 515/5/6
f 504/5/6 505/5/6 515/5/6
f 503/5/6 504/5/6 515/5/6
f 502/5/6 503/5/6 515/5/6
f 501/5/6 502/5/6 515/5/6
f 500/5/6 501/5/6 515/5/6
f 499/5/6 500/5/6 515/5/6
f 498/5/6 499/5/6 515/5/6
f 515/5/6 514/5/6 516/5/6
f 516/5/6 514/5/6 517/5/6
f 517/5/6 514/5/6 518/5/6
f 518/5/6 514/5/6 519/5/6
f 519/5/6 514/5/6 520/5/6
f 520/5/6 514/5/6 521/5/6
f 521/5/6 514/5/6 522/5/6
f 522/5/6 514/5/6 523/5/6
f 523/5/6 514/5/6 524/5/6
f 524/5/6 514/5/6 525/5/6
f 525/5/6 514/5/6 526/5/6
f 526/5/6 514/5/6 527/5/6
f 527/5/6 514/5/6 528/5/6
f 528/5/6 514/5/6 529/5/6
f 529/5/6 514/5/6 530/5/6
f 530/5/6 514/5/6 531/5/6
f 516/7/6 517/7/6 533/7/6
f 517/1/6 518/1/6 534/1/6
f 533/7/6 517/7/6 534/7/6
f 518/7/6 519/7/6 535/7/6
f 534/1/6 518/1/6 535/1/6
f 519/1/6 520/1/6 536/1/6
f 535/7/6 519/7/6 536/7/6
f 520/7/6 521/7/6 537/7/6
f 536/1/6 520/1/6 537/1/6
f 521/1/6 522/1/6 538/1/6
f 537/7/6 521/7/6 538/7/6
f 522/7/6 523/7/6 539/7/6
f 538/1/6 522/1/6 539/1/6
f 523/1/6 524/1/6 540/1/6
f 539/7/6 523/7/6 540/7/6
f 524/7/6 525/7/6 541/7/6
f 540/1/6 524/1/6 541/1/6
f 525/1/6 526/1/6 542/1/6
f 541/7/6 525/7/6 542/7/6
f 526/7/6 527/7/6 543/7/6
f 542/1/6 526/1/6 543/1/6
f 527/1/6 528/1/6 544/1/6
f 543/7/6 527/7/6 544/7/6
f 528/7/6 529/7/6 545/7/6
f 544/1/6 528/1/6 545/1/6
f 529/1/6 530/1/6 546/1/6
f 545/7/6 529/7/6 546/7/6
f 546/1/6 530/1/6 547/1/6
f 532/6/6 533/6/6 549/6/6
f 533/6/6 534/6/6 549/6/6
f 534/6/6 535/6/6 549/6/6
f 535/6/6 536/6/6 549/6/6
f 542/6/6 543/6/6 549/6/6
f 541/6/6 542/6/6 549/6/6
f 540/6/6 541/6/6 549/6/6
f 539/6/6 540/6/6 549/6/6
f 538/6/6 539/6/6 549/6/6
f 537/6/6 538/6/6 549/6/6
f 536/6/6 537/6/6 549/6/6
f 544/6/6 545/6/6 550/6/6
f 550/6/6 545/6/6 551/6/6
f 547/6/6 548/6/6 552/6/6
f 546/6/6 547/6/6 552/6/6
f 532/6/6 549/6/6 553/6/6
f 551/6/6 552/6/6 553/6/6
f 550/6/6 551/6/6 553/6/6
f 549/6/6 550/6/6 553/6/6
f 553/6/6 552/6/6 554/6/6
f 554/6/6 552/6/6 555/6/6
f 555/6/6 552/6/6 556/6/6
f 556/6/6 552/6/6 557/6/6
f 552/6/6 548/6/6 558/6/6
f 557/6/6 552/6/6 558/6/6
f 532/6/6 553/6/6 559/6/6
f 554/6/6 555/6/6 560/6/6
f 560/6/6 555/6/6 561/6/6
f 556/6/6 557/6/6 562/6/6
f 562/6/6 557/6/6 563/6/6
f 558/6/6 548/6/6 564/6/6
f 560/6/6 561/6/6 565/6/6
f 563/6/6 564/6/6 565/6/6
f 562/6/6 563/6/6 565/6/6
f 532/6/6 559/6/6 565/6/6
f 561/6/6 562/6/6 565/6/6
f 559/6/6 560/6/6 565/6/6
f 564/6/6 548/6/6 566/6/6
f 565/6/6 564/6/6 566/6/6
f 567/4/6 568/4/6 569/4/6
f 569/4/6 568/4/6 570/4/6
f 571/2/6 572/2/6 577/2/6
f 577/2/6 572/2/6 578/2/6
f 573/2/6 574/2/6 579/2/6
f 579/2/6 574/2/6 580/2/6
f 575/2/6 576/2/6 581/2/6
f 581/2/6 576/2/6 582/2/6
f 583/2/6 584/2/6 589/2/6
f 589/2/6 584/2/6 590/2/6
f 585/2/6 586/2/6 591/2/6
f 591/2/6 586/2/6 592/2/6
f 587/2/6 588/2/6 593/2/6
f 593/2/6 588/2/6 594/2/6
f 595/3/6 596/3/6 599/3/6
f 599/3/6 596/3/6 600/3/6
f 597/3/6 598/3/6 601/3/6
f 601/3/6 598/3/6 602/3/6
f 603/3/6 604/3/6 607/3/6
f 607/3/6 604/3/6 608/3/6
f 605/3/6 606/3/6 611/3/6
f 611/3/6 606/3/6 612/3/6
f 609/4/6 610/4/6 613/4/6
f 613/4/6 610/4/6 614/4/6
f 615/3/6 616/3/6 619/3/6
f 619/3/6 616/3/6 620/3/6
f 617/3/6 618/3/6 621/3/6
f 621/3/6 618/3/6 622/3/6
f 623/4/6 624/4/6 627/4/6
f 627/4/6 624/4/6 628/4/6
f 625/5/6 626/5/6 631/5/6
f 629/5/6 630/5/6 631/5/6
f 628/5/6 629/5/6 631/5/6
f 627/5/6 628/5/6 631/5/6
f 626/5/6 627/5/6 631/5/6
f 631/5/6 630/5/6 632/5/6
f 625/5/6 631/5/6 633/5/6
f 632/5/6 630/5/6 634/5/6
f 625/5/6 633/5/6 635/5/6
f 633/5/6 634/5/6 635/5/6
f 634/5/6 630/5/6 636/5/6
f 635/5/6 634/5/6 636/5/6
f 637/4/6 638/4/6 641/4/6
f 641/4/6 638/4/6 642/4/6
f 639/4/6 640/4/6 643/4/6
f 643/4/6 640/4/6 644/4/6
f 647/2/6 648/2/6 649/2/6
f 649/2/6 648/2/6 650/2/6
f 645/4/6 646/4/6 651/4/6
f 651/4/6 646/4/6 652/4/6
f 653/4/6 654/4/6 655/4/6
f 655/4/6 654/4/6 656/4/6
