# MagicaVoxel @ Ephtracy

# group
o 

# material
mtllib livingroom_lvl1.mtl
usemtl palette

# normals
vn -1 0 0
vn 1 0 0
vn 0 0 1
vn 0 0 -1
vn 0 -1 0
vn 0 1 0

# texcoords
vt 0.115234 0.5
vt 0.326172 0.5
vt 0.982422 0.5

# verts
v -0.8 0 0.8
v -0.8 0 -0.8
v -0.8 0.1 0.8
v -0.8 0.1 -0.8
v -0.4 0.1 0.8
v -0.4 0.1 0.7
v -0.4 0.1 0.6
v -0.4 0.1 0.5
v -0.4 0.2 0.8
v -0.4 0.2 0.7
v -0.4 0.2 0.6
v -0.4 0.2 0.5
v -0.4 0.4 0.7
v -0.4 0.4 0.5
v -0.4 0.5 0.8
v -0.4 0.5 0.7
v -0.2 0.1 0
v -0.2 0.1 -0.1
v -0.2 0.1 -0.4
v -0.2 0.1 -0.5
v -0.2 0.3 -0.1
v -0.2 0.3 -0.4
v -0.2 0.4 0
v -0.2 0.4 -0.5
v 0.2 0.1 0
v 0.2 0.1 -0.1
v 0.2 0.1 -0.4
v 0.2 0.1 -0.5
v 0.2 0.3 0
v 0.2 0.3 -0.1
v 0.2 0.3 -0.4
v 0.2 0.3 -0.5
v 0.4 0.1 0.8
v 0.4 0.1 0.7
v 0.4 0.1 0.6
v 0.4 0.1 0.5
v 0.4 0.1 -0.1
v 0.4 0.1 -0.2
v 0.4 0.1 -0.3
v 0.4 0.1 -0.4
v 0.4 0.2 0.8
v 0.4 0.2 0.7
v 0.4 0.2 0.6
v 0.4 0.2 0.5
v 0.4 0.2 -0.2
v 0.4 0.2 -0.3
v 0.4 0.3 0.7
v 0.4 0.3 0.5
v 0.4 0.3 -0.1
v 0.4 0.3 -0.4
v 0.4 0.4 0.7
v 0.4 0.4 0.5
v 0.6 0.1 -0.1
v 0.6 0.1 -0.2
v 0.6 0.1 -0.3
v 0.6 0.1 -0.4
v 0.6 0.2 -0.1
v 0.6 0.2 -0.2
v 0.6 0.2 -0.3
v 0.6 0.2 -0.4
v 0.6 0.3 -0.1
v 0.6 0.3 -0.4
v 0.6 0.6 -0.1
v 0.6 0.6 -0.4
v -0.3 0.1 0.8
v -0.3 0.1 0.7
v -0.3 0.1 0.6
v -0.3 0.1 0.5
v -0.3 0.2 0.8
v -0.3 0.2 0.7
v -0.3 0.2 0.6
v -0.3 0.2 0.5
v -0.3 0.3 0.7
v -0.3 0.3 0.5
v -0.3 0.4 0.7
v -0.3 0.4 0.5
v -0.1 0.1 0
v -0.1 0.1 -0.1
v -0.1 0.1 -0.4
v -0.1 0.1 -0.5
v -0.1 0.3 0
v -0.1 0.3 -0.1
v -0.1 0.3 -0.4
v -0.1 0.3 -0.5
v 0.3 0.1 0
v 0.3 0.1 -0.1
v 0.3 0.1 -0.4
v 0.3 0.1 -0.5
v 0.3 0.3 -0.1
v 0.3 0.3 -0.4
v 0.3 0.4 0
v 0.3 0.4 -0.5
v 0.5 0.1 0.8
v 0.5 0.1 0.7
v 0.5 0.1 0.6
v 0.5 0.1 0.5
v 0.5 0.1 -0.1
v 0.5 0.1 -0.2
v 0.5 0.1 -0.3
v 0.5 0.1 -0.4
v 0.5 0.2 0.8
v 0.5 0.2 0.7
v 0.5 0.2 0.6
v 0.5 0.2 0.5
v 0.5 0.2 -0.1
v 0.5 0.2 -0.2
v 0.5 0.2 -0.3
v 0.5 0.2 -0.4
v 0.5 0.4 0.7
v 0.5 0.4 0.5
v 0.5 0.5 0.8
v 0.5 0.5 0.7
v 0.7 0.1 -0.1
v 0.7 0.1 -0.2
v 0.7 0.1 -0.3
v 0.7 0.1 -0.4
v 0.7 0.2 -0.2
v 0.7 0.2 -0.3
v 0.7 0.6 -0.1
v 0.7 0.6 -0.4
v 0.8 0 0.8
v 0.8 0 -0.8
v 0.8 0.1 0.8
v 0.8 0.1 -0.8
v -0.8 0 0.8
v -0.8 0.1 0.8
v -0.4 0.1 0.8
v -0.4 0.2 0.8
v -0.4 0.5 0.8
v -0.3 0.1 0.8
v -0.3 0.2 0.8
v 0.4 0.1 0.8
v 0.4 0.2 0.8
v 0.5 0.1 0.8
v 0.5 0.2 0.8
v 0.5 0.5 0.8
v 0.8 0 0.8
v 0.8 0.1 0.8
v -0.4 0.1 0.6
v -0.4 0.2 0.6
v -0.3 0.1 0.6
v -0.3 0.2 0.6
v 0.4 0.1 0.6
v 0.4 0.2 0.6
v 0.5 0.1 0.6
v 0.5 0.2 0.6
v -0.2 0.1 0
v -0.2 0.4 0
v -0.1 0.1 0
v -0.1 0.3 0
v 0.2 0.1 0
v 0.2 0.3 0
v 0.3 0.1 0
v 0.3 0.4 0
v 0.4 0.1 -0.1
v 0.4 0.3 -0.1
v 0.5 0.1 -0.1
v 0.5 0.2 -0.1
v 0.6 0.1 -0.1
v 0.6 0.2 -0.1
v 0.6 0.3 -0.1
v 0.6 0.6 -0.1
v 0.7 0.1 -0.1
v 0.7 0.6 -0.1
v 0.4 0.1 -0.3
v 0.4 0.2 -0.3
v 0.5 0.1 -0.3
v 0.5 0.2 -0.3
v 0.6 0.1 -0.3
v 0.6 0.2 -0.3
v 0.7 0.1 -0.3
v 0.7 0.2 -0.3
v -0.2 0.1 -0.4
v -0.2 0.3 -0.4
v -0.1 0.1 -0.4
v -0.1 0.3 -0.4
v 0.2 0.1 -0.4
v 0.2 0.3 -0.4
v 0.3 0.1 -0.4
v 0.3 0.3 -0.4
v -0.4 0.1 0.7
v -0.4 0.2 0.7
v -0.4 0.4 0.7
v -0.4 0.5 0.7
v -0.3 0.1 0.7
v -0.3 0.2 0.7
v -0.3 0.3 0.7
v -0.3 0.4 0.7
v 0.4 0.1 0.7
v 0.4 0.2 0.7
v 0.4 0.3 0.7
v 0.4 0.4 0.7
v 0.5 0.1 0.7
v 0.5 0.2 0.7
v 0.5 0.4 0.7
v 0.5 0.5 0.7
v -0.4 0.1 0.5
v -0.4 0.2 0.5
v -0.4 0.4 0.5
v -0.3 0.1 0.5
v -0.3 0.2 0.5
v -0.3 0.3 0.5
v -0.3 0.4 0.5
v 0.4 0.1 0.5
v 0.4 0.2 0.5
v 0.4 0.3 0.5
v 0.4 0.4 0.5
v 0.5 0.1 0.5
v 0.5 0.2 0.5
v 0.5 0.4 0.5
v -0.2 0.1 -0.1
v -0.2 0.3 -0.1
v -0.1 0.1 -0.1
v -0.1 0.3 -0.1
v 0.2 0.1 -0.1
v 0.2 0.3 -0.1
v 0.3 0.1 -0.1
v 0.3 0.3 -0.1
v 0.4 0.1 -0.2
v 0.4 0.2 -0.2
v 0.5 0.1 -0.2
v 0.5 0.2 -0.2
v 0.6 0.1 -0.2
v 0.6 0.2 -0.2
v 0.7 0.1 -0.2
v 0.7 0.2 -0.2
v 0.4 0.1 -0.4
v 0.4 0.3 -0.4
v 0.5 0.1 -0.4
v 0.5 0.2 -0.4
v 0.6 0.1 -0.4
v 0.6 0.2 -0.4
v 0.6 0.3 -0.4
v 0.6 0.6 -0.4
v 0.7 0.1 -0.4
v 0.7 0.6 -0.4
v -0.2 0.1 -0.5
v -0.2 0.4 -0.5
v -0.1 0.1 -0.5
v -0.1 0.3 -0.5
v 0.2 0.1 -0.5
v 0.2 0.3 -0.5
v 0.3 0.1 -0.5
v 0.3 0.4 -0.5
v -0.8 0 -0.8
v -0.8 0.1 -0.8
v 0.8 0 -0.8
v 0.8 0.1 -0.8
v -0.8 0 0.8
v 0.8 0 0.8
v -0.8 0 -0.8
v 0.8 0 -0.8
v -0.3 0.2 0.8
v 0.4 0.2 0.8
v -0.4 0.2 0.7
v -0.3 0.2 0.7
v 0.4 0.2 0.7
v 0.5 0.2 0.7
v -0.4 0.2 0.6
v -0.3 0.2 0.6
v 0.4 0.2 0.6
v 0.5 0.2 0.6
v -0.3 0.2 0.5
v 0.4 0.2 0.5
v 0.5 0.2 -0.1
v 0.6 0.2 -0.1
v 0.4 0.2 -0.2
v 0.5 0.2 -0.2
v 0.6 0.2 -0.2
v 0.7 0.2 -0.2
v 0.4 0.2 -0.3
v 0.5 0.2 -0.3
v 0.6 0.2 -0.3
v 0.7 0.2 -0.3
v 0.5 0.2 -0.4
v 0.6 0.2 -0.4
v -0.1 0.3 0
v 0.2 0.3 0
v -0.2 0.3 -0.1
v -0.1 0.3 -0.1
v 0.2 0.3 -0.1
v 0.3 0.3 -0.1
v -0.2 0.3 -0.4
v -0.1 0.3 -0.4
v 0.2 0.3 -0.4
v 0.3 0.3 -0.4
v -0.1 0.3 -0.5
v 0.2 0.3 -0.5
v -0.8 0.1 0.8
v -0.4 0.1 0.8
v -0.3 0.1 0.8
v 0.4 0.1 0.8
v 0.5 0.1 0.8
v 0.8 0.1 0.8
v -0.4 0.1 0.7
v -0.3 0.1 0.7
v 0.4 0.1 0.7
v 0.5 0.1 0.7
v -0.4 0.1 0.6
v -0.3 0.1 0.6
v 0.4 0.1 0.6
v 0.5 0.1 0.6
v -0.4 0.1 0.5
v -0.3 0.1 0.5
v 0.4 0.1 0.5
v 0.5 0.1 0.5
v -0.2 0.1 0
v -0.1 0.1 0
v 0.2 0.1 0
v 0.3 0.1 0
v -0.2 0.1 -0.1
v -0.1 0.1 -0.1
v 0.2 0.1 -0.1
v 0.3 0.1 -0.1
v 0.4 0.1 -0.1
v 0.5 0.1 -0.1
v 0.6 0.1 -0.1
v 0.7 0.1 -0.1
v 0.4 0.1 -0.2
v 0.5 0.1 -0.2
v 0.6 0.1 -0.2
v 0.7 0.1 -0.2
v 0.4 0.1 -0.3
v 0.5 0.1 -0.3
v 0.6 0.1 -0.3
v 0.7 0.1 -0.3
v -0.2 0.1 -0.4
v -0.1 0.1 -0.4
v 0.2 0.1 -0.4
v 0.3 0.1 -0.4
v 0.4 0.1 -0.4
v 0.5 0.1 -0.4
v 0.6 0.1 -0.4
v 0.7 0.1 -0.4
v -0.2 0.1 -0.5
v -0.1 0.1 -0.5
v 0.2 0.1 -0.5
v 0.3 0.1 -0.5
v -0.8 0.1 -0.8
v 0.8 0.1 -0.8
v -0.3 0.3 0.7
v 0.4 0.3 0.7
v -0.3 0.3 0.5
v 0.4 0.3 0.5
v 0.4 0.3 -0.1
v 0.6 0.3 -0.1
v 0.4 0.3 -0.4
v 0.6 0.3 -0.4
v -0.4 0.4 0.7
v -0.3 0.4 0.7
v 0.4 0.4 0.7
v 0.5 0.4 0.7
v -0.4 0.4 0.5
v -0.3 0.4 0.5
v 0.4 0.4 0.5
v 0.5 0.4 0.5
v -0.2 0.4 0
v 0.3 0.4 0
v -0.2 0.4 -0.5
v 0.3 0.4 -0.5
v -0.4 0.5 0.8
v 0.5 0.5 0.8
v -0.4 0.5 0.7
v 0.5 0.5 0.7
v 0.6 0.6 -0.1
v 0.7 0.6 -0.1
v 0.6 0.6 -0.4
v 0.7 0.6 -0.4

# faces
f 3/3/1 2/3/1 1/3/1
f 4/3/1 2/3/1 3/3/1
f 9/2/1 6/2/1 5/2/1
f 10/2/1 6/2/1 9/2/1
f 11/2/1 8/2/1 7/2/1
f 12/2/1 8/2/1 11/2/1
f 13/1/1 10/1/1 9/1/1
f 13/1/1 11/1/1 10/1/1
f 13/1/1 12/1/1 11/1/1
f 14/1/1 12/1/1 13/1/1
f 15/1/1 13/1/1 9/1/1
f 16/1/1 13/1/1 15/1/1
f 21/2/1 18/2/1 17/2/1
f 22/2/1 20/2/1 19/2/1
f 23/2/1 21/2/1 17/2/1
f 23/2/1 22/2/1 21/2/1
f 24/2/1 20/2/1 22/2/1
f 24/2/1 22/2/1 23/2/1
f 29/2/1 26/2/1 25/2/1
f 30/2/1 26/2/1 29/2/1
f 31/2/1 28/2/1 27/2/1
f 32/2/1 28/2/1 31/2/1
f 41/2/1 34/2/1 33/2/1
f 42/2/1 34/2/1 41/2/1
f 43/2/1 36/2/1 35/2/1
f 44/2/1 36/2/1 43/2/1
f 45/2/1 38/2/1 37/2/1
f 46/2/1 40/2/1 39/2/1
f 49/2/1 45/2/1 37/2/1
f 49/2/1 46/2/1 45/2/1
f 50/2/1 40/2/1 46/2/1
f 50/2/1 46/2/1 49/2/1
f 51/1/1 48/1/1 47/1/1
f 52/1/1 48/1/1 51/1/1
f 57/2/1 54/2/1 53/2/1
f 58/2/1 54/2/1 57/2/1
f 59/2/1 56/2/1 55/2/1
f 60/2/1 56/2/1 59/2/1
f 63/2/1 62/2/1 61/2/1
f 64/2/1 62/2/1 63/2/1
f 65/2/2 66/2/2 69/2/2
f 69/2/2 66/2/2 70/2/2
f 67/2/2 68/2/2 71/2/2
f 71/2/2 68/2/2 72/2/2
f 73/1/2 74/1/2 75/1/2
f 75/1/2 74/1/2 76/1/2
f 77/2/2 78/2/2 81/2/2
f 81/2/2 78/2/2 82/2/2
f 79/2/2 80/2/2 83/2/2
f 83/2/2 80/2/2 84/2/2
f 85/2/2 86/2/2 89/2/2
f 87/2/2 88/2/2 90/2/2
f 85/2/2 89/2/2 91/2/2
f 89/2/2 90/2/2 91/2/2
f 90/2/2 88/2/2 92/2/2
f 91/2/2 90/2/2 92/2/2
f 93/2/2 94/2/2 101/2/2
f 101/2/2 94/2/2 102/2/2
f 95/2/2 96/2/2 103/2/2
f 103/2/2 96/2/2 104/2/2
f 97/2/2 98/2/2 105/2/2
f 105/2/2 98/2/2 106/2/2
f 99/2/2 100/2/2 107/2/2
f 107/2/2 100/2/2 108/2/2
f 101/1/2 102/1/2 109/1/2
f 103/1/2 104/1/2 109/1/2
f 102/1/2 103/1/2 109/1/2
f 109/1/2 104/1/2 110/1/2
f 101/1/2 109/1/2 111/1/2
f 111/1/2 109/1/2 112/1/2
f 113/2/2 114/2/2 117/2/2
f 115/2/2 116/2/2 118/2/2
f 113/2/2 117/2/2 119/2/2
f 117/2/2 118/2/2 119/2/2
f 118/2/2 116/2/2 120/2/2
f 119/2/2 118/2/2 120/2/2
f 121/3/2 122/3/2 123/3/2
f 123/3/2 122/3/2 124/3/2
f 127/3/3 126/3/3 125/3/3
f 130/3/3 127/3/3 125/3/3
f 130/2/3 128/2/3 127/2/3
f 131/1/3 129/1/3 128/1/3
f 131/2/3 128/2/3 130/2/3
f 132/3/3 130/3/3 125/3/3
f 133/1/3 129/1/3 131/1/3
f 134/3/3 132/3/3 125/3/3
f 134/2/3 133/2/3 132/2/3
f 135/1/3 129/1/3 133/1/3
f 135/2/3 133/2/3 134/2/3
f 136/1/3 129/1/3 135/1/3
f 137/3/3 134/3/3 125/3/3
f 138/3/3 134/3/3 137/3/3
f 141/2/3 140/2/3 139/2/3
f 142/2/3 140/2/3 141/2/3
f 145/2/3 144/2/3 143/2/3
f 146/2/3 144/2/3 145/2/3
f 149/2/3 148/2/3 147/2/3
f 150/2/3 148/2/3 149/2/3
f 152/2/3 148/2/3 150/2/3
f 153/2/3 152/2/3 151/2/3
f 154/2/3 148/2/3 152/2/3
f 154/2/3 152/2/3 153/2/3
f 157/2/3 156/2/3 155/2/3
f 158/2/3 156/2/3 157/2/3
f 160/2/3 156/2/3 158/2/3
f 161/2/3 156/2/3 160/2/3
f 163/2/3 160/2/3 159/2/3
f 163/2/3 162/2/3 161/2/3
f 163/2/3 161/2/3 160/2/3
f 164/2/3 162/2/3 163/2/3
f 167/2/3 166/2/3 165/2/3
f 168/2/3 166/2/3 167/2/3
f 171/2/3 170/2/3 169/2/3
f 172/2/3 170/2/3 171/2/3
f 175/2/3 174/2/3 173/2/3
f 176/2/3 174/2/3 175/2/3
f 179/2/3 178/2/3 177/2/3
f 180/2/3 178/2/3 179/2/3
f 181/2/4 182/2/4 185/2/4
f 185/2/4 182/2/4 186/2/4
f 183/1/4 184/1/4 188/1/4
f 187/1/4 188/1/4 191/1/4
f 188/1/4 184/1/4 192/1/4
f 191/1/4 188/1/4 192/1/4
f 189/2/4 190/2/4 193/2/4
f 193/2/4 190/2/4 194/2/4
f 192/1/4 184/1/4 195/1/4
f 195/1/4 184/1/4 196/1/4
f 197/2/4 198/2/4 200/2/4
f 198/1/4 199/1/4 201/1/4
f 200/2/4 198/2/4 201/2/4
f 201/1/4 199/1/4 202/1/4
f 202/1/4 199/1/4 203/1/4
f 201/1/4 202/1/4 205/1/4
f 205/1/4 202/1/4 206/1/4
f 204/2/4 205/2/4 208/2/4
f 206/1/4 207/1/4 209/1/4
f 208/2/4 205/2/4 209/2/4
f 205/1/4 206/1/4 209/1/4
f 209/1/4 207/1/4 210/1/4
f 211/2/4 212/2/4 213/2/4
f 213/2/4 212/2/4 214/2/4
f 215/2/4 216/2/4 217/2/4
f 217/2/4 216/2/4 218/2/4
f 219/2/4 220/2/4 221/2/4
f 221/2/4 220/2/4 222/2/4
f 223/2/4 224/2/4 225/2/4
f 225/2/4 224/2/4 226/2/4
f 227/2/4 228/2/4 229/2/4
f 229/2/4 228/2/4 230/2/4
f 230/2/4 228/2/4 232/2/4
f 232/2/4 228/2/4 233/2/4
f 231/2/4 232/2/4 235/2/4
f 233/2/4 234/2/4 235/2/4
f 232/2/4 233/2/4 235/2/4
f 235/2/4 234/2/4 236/2/4
f 237/2/4 238/2/4 239/2/4
f 239/2/4 238/2/4 240/2/4
f 240/2/4 238/2/4 242/2/4
f 241/2/4 242/2/4 243/2/4
f 242/2/4 238/2/4 244/2/4
f 243/2/4 242/2/4 244/2/4
f 245/3/4 246/3/4 247/3/4
f 247/3/4 246/3/4 248/3/4
f 251/3/5 250/3/5 249/3/5
f 252/3/5 250/3/5 251/3/5
f 256/1/5 254/1/5 253/1/5
f 257/1/5 254/1/5 256/1/5
f 259/1/5 256/1/5 255/1/5
f 259/1/5 258/1/5 257/1/5
f 259/1/5 257/1/5 256/1/5
f 260/1/5 258/1/5 259/1/5
f 261/1/5 258/1/5 260/1/5
f 262/1/5 258/1/5 261/1/5
f 263/1/5 261/1/5 260/1/5
f 264/1/5 261/1/5 263/1/5
f 268/2/5 266/2/5 265/2/5
f 269/2/5 266/2/5 268/2/5
f 271/2/5 268/2/5 267/2/5
f 271/2/5 270/2/5 269/2/5
f 271/2/5 269/2/5 268/2/5
f 272/2/5 270/2/5 271/2/5
f 273/2/5 270/2/5 272/2/5
f 274/2/5 270/2/5 273/2/5
f 275/2/5 273/2/5 272/2/5
f 276/2/5 273/2/5 275/2/5
f 280/2/5 278/2/5 277/2/5
f 281/2/5 278/2/5 280/2/5
f 283/2/5 280/2/5 279/2/5
f 283/2/5 282/2/5 281/2/5
f 283/2/5 281/2/5 280/2/5
f 284/2/5 282/2/5 283/2/5
f 285/2/5 282/2/5 284/2/5
f 286/2/5 282/2/5 285/2/5
f 287/2/5 285/2/5 284/2/5
f 288/2/5 285/2/5 287/2/5
f 289/3/6 290/3/6 295/3/6
f 291/3/6 292/3/6 296/3/6
f 296/3/6 292/3/6 297/3/6
f 293/3/6 294/3/6 298/3/6
f 296/3/6 297/3/6 299/3/6
f 297/3/6 298/3/6 299/3/6
f 289/3/6 295/3/6 299/3/6
f 295/3/6 296/3/6 299/3/6
f 299/3/6 298/3/6 300/3/6
f 300/3/6 298/3/6 301/3/6
f 298/3/6 294/3/6 302/3/6
f 301/3/6 298/3/6 302/3/6
f 289/3/6 299/3/6 303/3/6
f 300/3/6 301/3/6 304/3/6
f 304/3/6 301/3/6 305/3/6
f 302/3/6 294/3/6 306/3/6
f 304/3/6 305/3/6 307/3/6
f 305/3/6 306/3/6 307/3/6
f 303/3/6 304/3/6 307/3/6
f 307/3/6 306/3/6 308/3/6
f 308/3/6 306/3/6 309/3/6
f 309/3/6 306/3/6 310/3/6
f 303/3/6 307/3/6 311/3/6
f 308/3/6 309/3/6 312/3/6
f 312/3/6 309/3/6 313/3/6
f 310/3/6 306/3/6 314/3/6
f 314/3/6 306/3/6 315/3/6
f 306/3/6 294/3/6 316/3/6
f 315/3/6 306/3/6 316/3/6
f 316/3/6 294/3/6 317/3/6
f 317/3/6 294/3/6 318/3/6
f 314/3/6 315/3/6 319/3/6
f 312/3/6 313/3/6 319/3/6
f 311/3/6 312/3/6 319/3/6
f 313/3/6 314/3/6 319/3/6
f 316/3/6 317/3/6 320/3/6
f 320/3/6 317/3/6 321/3/6
f 318/3/6 294/3/6 322/3/6
f 320/3/6 321/3/6 323/3/6
f 321/3/6 322/3/6 323/3/6
f 311/3/6 319/3/6 323/3/6
f 319/3/6 320/3/6 323/3/6
f 323/3/6 322/3/6 324/3/6
f 324/3/6 322/3/6 325/3/6
f 322/3/6 294/3/6 326/3/6
f 325/3/6 322/3/6 326/3/6
f 303/3/6 311/3/6 327/3/6
f 311/3/6 323/3/6 327/3/6
f 327/3/6 323/3/6 328/3/6
f 328/3/6 323/3/6 329/3/6
f 329/3/6 323/3/6 330/3/6
f 330/3/6 323/3/6 331/3/6
f 324/3/6 325/3/6 332/3/6
f 332/3/6 325/3/6 333/3/6
f 326/3/6 294/3/6 334/3/6
f 303/3/6 327/3/6 335/3/6
f 328/3/6 329/3/6 336/3/6
f 336/3/6 329/3/6 337/3/6
f 330/3/6 331/3/6 338/3/6
f 332/3/6 333/3/6 338/3/6
f 333/3/6 334/3/6 338/3/6
f 331/3/6 332/3/6 338/3/6
f 289/3/6 303/3/6 339/3/6
f 337/3/6 338/3/6 339/3/6
f 336/3/6 337/3/6 339/3/6
f 335/3/6 336/3/6 339/3/6
f 303/3/6 335/3/6 339/3/6
f 338/3/6 334/3/6 340/3/6
f 339/3/6 338/3/6 340/3/6
f 334/3/6 294/3/6 340/3/6
f 341/1/6 342/1/6 343/1/6
f 343/1/6 342/1/6 344/1/6
f 345/2/6 346/2/6 347/2/6
f 347/2/6 346/2/6 348/2/6
f 349/1/6 350/1/6 353/1/6
f 353/1/6 350/1/6 354/1/6
f 351/1/6 352/1/6 355/1/6
f 355/1/6 352/1/6 356/1/6
f 357/2/6 358/2/6 359/2/6
f 359/2/6 358/2/6 360/2/6
f 361/1/6 362/1/6 363/1/6
f 363/1/6 362/1/6 364/1/6
f 365/2/6 366/2/6 367/2/6
f 367/2/6 366/2/6 368/2/6
